<?xml version="1.0" encoding="UTF-8"?>
<svg width="703px" height="315px" viewBox="0 0 703 315" version="1.1" xmlns="http://www.w3.org/2000/svg" xmlns:xlink="http://www.w3.org/1999/xlink">
    <title>Artboard</title>
    <g id="Artboard" stroke="none" stroke-width="1" fill="none" fill-rule="evenodd">
        <g id="Group-15-Copy" fill="#19160F" fill-rule="nonzero">
            <path d="M80.6300003,92 L78.0300003,83.4 L52.4300003,83.4 L49.8300003,92 L27.9300003,92 L52.5300003,25.3 L77.9300003,25.3 L102.53,92 L80.6300003,92 Z M65.2300003,43.1 L57.6300003,66.6 L72.8300003,66.6 L65.2300003,43.1 Z M111.46,92 L111.46,25.3 L141.26,25.3 C162.26,25.3 177.86,37.3 177.86,58.6 C177.86,79.9 162.26,92 141.36,92 L111.46,92 Z M131.66,74.4 L141.26,74.4 C151.36,74.4 157.36,67 157.36,58.6 C157.36,49.6 152.16,42.9 141.36,42.9 L131.66,42.9 L131.66,74.4 Z M205.79,92 L181.19,25.3 L204.09,25.3 L218.49,70.2 L232.89,25.3 L255.79,25.3 L231.19,92 L205.79,92 Z M306.22,92 L303.62,83.4 L278.02,83.4 L275.42,92 L253.52,92 L278.12,25.3 L303.52,25.3 L328.12,92 L306.22,92 Z M290.82,43.1 L283.22,66.6 L298.42,66.6 L290.82,43.1 Z M381.85,92 L357.25,56.2 L357.25,92 L337.05,92 L337.05,25.3 L357.85,25.3 L381.05,58.9 L381.05,25.3 L401.25,25.3 L401.25,92 L381.85,92 Z M449.98,93.2 C429.58,93.2 413.78,79.2 413.78,58.7 C413.78,38.1 429.58,24.2 449.98,24.2 C467.98,24.2 476.78,34.4 480.78,43.6 L463.38,51.7 C461.68,46.5 456.48,42 449.98,42 C440.78,42 434.28,49.4 434.28,58.7 C434.28,68 440.78,75.4 449.98,75.4 C456.48,75.4 461.68,70.9 463.38,65.7 L480.78,73.7 C476.88,82.6 467.98,93.2 449.98,93.2 Z M492.41,92 L492.41,25.3 L512.61,25.3 L512.61,92 L492.41,92 Z M573.54,92 L548.94,56.2 L548.94,92 L528.74,92 L528.74,25.3 L549.54,25.3 L572.74,58.9 L572.74,25.3 L592.94,25.3 L592.94,92 L573.54,92 Z M605.47,58.7 C605.47,37.3 621.97,24.2 642.17,24.2 C657.67,24.2 666.87,32 671.47,40.6 L654.47,49.3 C652.27,45.2 647.87,42 642.17,42 C632.47,42 625.97,49.4 625.97,58.7 C625.97,68 632.47,75.4 642.17,75.4 C646.47,75.4 650.47,74.3 653.07,72.4 L653.07,69.5 L640.17,69.5 L640.17,52.9 L672.67,52.9 L672.67,79.7 C665.27,87.9 655.27,93.2 642.17,93.2 C621.97,93.2 605.47,80 605.47,58.7 Z" id="ADVANCING"></path>
            <path d="M27.8149997,197 L27.8149997,130.3 L62.9149997,130.3 C75.6149997,130.3 82.1149997,138.4 82.1149997,147.3 C82.1149997,155.7 76.9149997,161.3 70.6149997,162.6 C77.7149997,163.7 83.4149997,170.6 83.4149997,179 C83.4149997,189 76.7149997,197 64.0149997,197 L27.8149997,197 Z M42.0149997,157.1 L59.8149997,157.1 C64.6149997,157.1 67.6149997,154 67.6149997,149.7 C67.6149997,145.6 64.6149997,142.4 59.8149997,142.4 L42.0149997,142.4 L42.0149997,157.1 Z M42.0149997,184.9 L60.3149997,184.9 C65.7149997,184.9 68.9149997,181.8 68.9149997,177 C68.9149997,172.8 65.9149997,169.2 60.3149997,169.2 L42.0149997,169.2 L42.0149997,184.9 Z M97.0449998,197 L97.0449998,130.3 L111.245,130.3 L111.245,184.5 L139.445,184.5 L139.445,197 L97.0449998,197 Z M146.375,163.7 C146.375,143.6 161.075,129.2 181.175,129.2 C201.375,129.2 216.075,143.6 216.075,163.7 C216.075,183.8 201.375,198.2 181.175,198.2 C161.075,198.2 146.375,183.8 146.375,163.7 Z M201.475,163.7 C201.475,151.2 193.475,141.8 181.175,141.8 C168.875,141.8 160.975,151.2 160.975,163.7 C160.975,176.1 168.875,185.6 181.175,185.6 C193.475,185.6 201.475,176.1 201.475,163.7 Z M260.805,198.2 C241.305,198.2 225.805,184.2 225.805,163.7 C225.805,143.2 241.305,129.2 260.805,129.2 C276.005,129.2 284.505,137.2 289.205,145.5 L277.005,151.5 C274.205,146.1 268.205,141.8 260.805,141.8 C249.205,141.8 240.405,151.1 240.405,163.7 C240.405,176.3 249.205,185.6 260.805,185.6 C268.205,185.6 274.205,181.4 277.005,175.9 L289.205,181.8 C284.405,190.1 276.005,198.2 260.805,198.2 Z M340.235,197 L320.035,170.3 L314.835,176.5 L314.835,197 L300.635,197 L300.635,130.3 L314.835,130.3 L314.835,160.1 L338.435,130.3 L355.935,130.3 L329.435,161.6 L357.735,197 L340.235,197 Z M394.965,198.2 C375.465,198.2 359.965,184.2 359.965,163.7 C359.965,143.2 375.465,129.2 394.965,129.2 C410.165,129.2 418.665,137.2 423.365,145.5 L411.165,151.5 C408.365,146.1 402.365,141.8 394.965,141.8 C383.365,141.8 374.565,151.1 374.565,163.7 C374.565,176.3 383.365,185.6 394.965,185.6 C402.365,185.6 408.365,181.4 411.165,175.9 L423.365,181.8 C418.565,190.1 410.165,198.2 394.965,198.2 Z M480.495,197 L480.495,169 L448.995,169 L448.995,197 L434.795,197 L434.795,130.3 L448.995,130.3 L448.995,156.5 L480.495,156.5 L480.495,130.3 L494.795,130.3 L494.795,197 L480.495,197 Z M557.525,197 L553.325,185.5 L523.525,185.5 L519.325,197 L503.725,197 L529.525,130.3 L547.325,130.3 L573.025,197 L557.525,197 Z M538.425,142.6 L527.325,173.2 L549.425,173.2 L538.425,142.6 Z M582.155,197 L582.155,130.3 L596.355,130.3 L596.355,197 L582.155,197 Z M658.485,197 L626.685,152.2 L626.685,197 L612.485,197 L612.485,130.3 L627.085,130.3 L657.985,173.5 L657.985,130.3 L672.185,130.3 L672.185,197 L658.485,197 Z" id="BLOCKCHAIN"></path>
            <path d="M48.607145,302 L48.607145,242.7 L27.507145,242.7 L27.507145,235.3 L78.107145,235.3 L78.107145,242.7 L56.907145,242.7 L56.907145,302 L48.607145,302 Z M88.535716,302 L88.535716,235.3 L132.235716,235.3 L132.235716,242.7 L96.835716,242.7 L96.835716,264.2 L131.535716,264.2 L131.535716,271.6 L96.835716,271.6 L96.835716,294.6 L132.235716,294.6 L132.235716,302 L88.535716,302 Z M176.164287,303.2 C157.264287,303.2 142.164287,289.2 142.164287,268.7 C142.164287,248.2 157.264287,234.2 176.164287,234.2 C188.264287,234.2 196.464287,239.9 201.764287,247.4 L194.764287,251.3 C190.964287,245.7 184.064287,241.6 176.164287,241.6 C161.864287,241.6 150.764287,252.8 150.764287,268.7 C150.764287,284.5 161.864287,295.8 176.164287,295.8 C184.064287,295.8 190.964287,291.8 194.764287,286.1 L201.864287,290 C196.264287,297.6 188.264287,303.2 176.164287,303.2 Z M259.192858,302 L259.192858,271.4 L220.192858,271.4 L220.192858,302 L211.892858,302 L211.892858,235.3 L220.192858,235.3 L220.192858,264 L259.192858,264 L259.192858,235.3 L267.492858,235.3 L267.492858,302 L259.192858,302 Z M329.721429,302 L290.821429,248.2 L290.821429,302 L282.521429,302 L282.521429,235.3 L291.021429,235.3 L329.421429,288 L329.421429,235.3 L337.721429,235.3 L337.721429,302 L329.721429,302 Z M350.05,268.7 C350.05,249 363.35,234.2 383.15,234.2 C402.85,234.2 416.25,249 416.25,268.7 C416.25,288.4 402.85,303.2 383.15,303.2 C363.35,303.2 350.05,288.4 350.05,268.7 Z M407.65,268.7 C407.65,253.1 398.05,241.6 383.15,241.6 C368.15,241.6 358.65,253.1 358.65,268.7 C358.65,284.2 368.15,295.8 383.15,295.8 C398.05,295.8 407.65,284.2 407.65,268.7 Z M428.678571,302 L428.678571,235.3 L436.978571,235.3 L436.978571,294.6 L467.978571,294.6 L467.978571,302 L428.678571,302 Z M473.007142,268.7 C473.007142,249 486.307142,234.2 506.107142,234.2 C525.807142,234.2 539.207142,249 539.207142,268.7 C539.207142,288.4 525.807142,303.2 506.107142,303.2 C486.307142,303.2 473.007142,288.4 473.007142,268.7 Z M530.607142,268.7 C530.607142,253.1 521.007142,241.6 506.107142,241.6 C491.107142,241.6 481.607142,253.1 481.607142,268.7 C481.607142,284.2 491.107142,295.8 506.107142,295.8 C521.007142,295.8 530.607142,284.2 530.607142,268.7 Z M548.935713,268.7 C548.935713,248 564.235713,234.2 583.235713,234.2 C595.035713,234.2 603.235713,239.4 609.135713,246.7 L602.535713,250.8 C598.335713,245.4 591.235713,241.6 583.235713,241.6 C568.635713,241.6 557.535713,252.8 557.535713,268.7 C557.535713,284.5 568.635713,295.9 583.235713,295.9 C591.235713,295.9 597.835713,292 601.135713,288.7 L601.135713,275.1 L578.235713,275.1 L578.235713,267.7 L609.435713,267.7 L609.435713,291.8 C603.235713,298.7 594.135713,303.3 583.235713,303.3 C564.235713,303.3 548.935713,289.4 548.935713,268.7 Z M640.864284,302 L640.864284,273.8 L614.564284,235.3 L624.264284,235.3 L644.964284,266.3 L665.664284,235.3 L675.364284,235.3 L649.164284,273.8 L649.164284,302 L640.864284,302 Z" id="TECHNOLOGY"></path>
        </g>
    </g>
</svg>