<svg xmlns="http://www.w3.org/2000/svg" width="185" height="43" viewBox="0 0 185 43">
    <g fill="none" fill-rule="nonzero">
        <path fill="#417BA4" d="M16.75.691l-1.389.46c-.849.308-.849.308-1.39.538-.694.307-.694.307-1.08.461-.617.384-.617.384-1.003.538-.618.383-.618.383-.85.614-.617.384-.617.384-.926.614-.772.46-.849.46-1.08.691l-1.158.922c1.544-1.46 3.937-2.918 6.407-3.917.849-.46 1.698-.69 2.47-.92"/>
        <path fill="#D37D41" d="M4.632 9.291c-.155.154-.386.538-.54.691.154-.23.308-.537.54-.69"/>
        <path fill="#E8B521" d="M17.909 37.625c-.463.614-.927 1.305-1.08 1.843.23-.614.617-1.229 1.08-1.843"/>
        <path fill="#417BA4" d="M1.698 26.721c-.077.461 0 .845.077 1.152-.077-.307-.154-.69-.077-1.152m4.555 9.138c-.386-.46-.85-.922-1.081-1.382.386.46.926 1.075 1.312 1.536-.077-.077-.154-.154-.231-.154"/>
        <path fill="#E8B521" d="M16.75 41.771c-.308-.383-.385-.69-.308-1.305 0 .46.077.922.309 1.305M.926 18.966c0-.154.078-.384.078-.537.077-.538.154-1.075.308-1.613v.154l-.154.69-.232 1.306"/>
        <path fill="#D37D41" d="M4.632 9.291c.308-.384.463-.691.849-1.075l-.31.384c-.385.384-.694.998-1.003 1.459.078-.307.232-.614.464-.768"/>
        <g>
            <path fill="#EFF3C9" d="M30.8 12.593h-.309c0-.077.077-.154.077-.154h.078c.154 0 .154.154.154.154"/>
            <path fill="#417BA4" d="M6.716 6.834c.309-.46.695-.845 1.158-1.305.694-.615.694-.615 1.08-.922.618-.537.618-.537 1.004-.69.617-.462.617-.462.926-.615.695-.384.695-.384.927-.538.617-.384.617-.384 1.003-.537.695-.384.695-.384 1.08-.46.695-.308.85-.385 1.39-.538.927-.308.927-.308 1.39-.538C19.453 0 21.15.384 20.842 1.92c-.077.537-.463 1.075-1.003 1.612-.464.154-1.467 0-1.621-.153.463-.538.694-.999.849-1.383.386-1.535-1.93-1.612-5.25-.307C11.194 2.841 8.8 4.454 7.72 5.836c-.386.384-.694.614-1.003.998m0 0c-.386.384-.54.614-.618.998.077-.384.232-.614.618-.998"/>
            <path fill="#D37D41" d="M20.842.077c.54 0 1.312-.077 1.853-.077 1.93 0 2.856.691 2.47 2.15-.463 1.766-2.933 4.223-6.098 6.373-.618.307-1.313-.537-1.081-.921 0-.077.077-.077.077-.077 2.856-1.92 4.94-3.993 5.404-5.529.386-1.458-.85-2.073-2.934-1.92h.31M4.167 9.983c-.077.23-.308.538-.463.768.077-.307.232-.537.463-.768"/>
            <path fill="#E8B521" d="M31.804 2.15c1.08.538 1.543 1.459 1.157 2.841-1.08 4.146-9.108 10.366-17.908 14.129a53.302 53.302 0 0 1-4.786 1.766c-.85.076-.927-.998-.54-1.536.077-.154.154-.154.308-.307 1.39-.384 2.856-.922 4.4-1.536 8.337-3.532 15.902-9.521 16.905-13.36.386-1.383-.154-2.304-1.39-2.765.541.23 1.313.538 1.854.768m9.494 9.06l.309.461c.309.692.309.692.309 1.075v.077c-.309-.077-.85-1.152-.927-1.612 0-.538-.077-.922-.385-1.306l.694 1.306"/>
            <path fill="#417BA4" d="M43.228 16.048c.077.46.077.998-.077 1.613-1.08 3.993-7.951 9.905-16.288 14.205-.926.384-1.467-.307-1.312-.921.077-.308.309-.461.463-.538 8.414-4.377 15.439-10.366 16.597-14.436.154-.69.154-1.382 0-1.92.231.692.54 1.383.617 1.997"/>
            <path fill="#D37D41" d="M43.846 19.81v.692c0 .384 0 .614-.078 1.075-.617 2.457-3.628 5.605-7.796 8.753-.618.461-1.004-.153-.926-.614.077-.384.386-.614.463-.691 4.323-3.148 7.41-6.45 8.028-8.984.077-.46.154-.921.077-1.382l.232 1.152"/>
            <path fill="#417BA4" d="M6.021 9.214c-.077-.307-.154-.46-.077-.844-.155.384-.077.537.077.844M15.44 6.45c.077.077.154.384 0 .537-.927.538-1.93 1.075-3.01 1.46-3.166 1.382-5.79 1.535-6.408.614.386-.461.85-.922 1.158-1.382.54.69 2.547.537 5.095-.538.849-.307 1.698-.691 2.393-1.152.308-.077.617.384.772.461"/>
            <path fill="#D37D41" d="M3.705 12.67c-.154-.307-.309-.615-.309-1.075 0 .384 0 .69.31 1.075m7.41-.922c0 .46-.077 1.075-4.014 1.613-1.08.153-2.625.076-3.397-.691.309-.538.54-.999.927-1.536.694.921 3.01.921 6.098-.077.386-.153.386.691.386.691"/>
            <path fill="#417BA4" d="M2.161 16.509c-.308-.384-.386-.845-.308-1.382-.078.537 0 .998.308 1.382M27.018.537c.386.077.617.154.849.154 1.158.46 1.62 1.305 1.312 2.534-.926 3.455-7.797 8.83-15.284 11.979C7.95 17.66 3.396 18.12 2.16 16.355c.155-.46.386-.998.54-1.535 1.081 1.535 5.327 1.151 10.73-1.075 6.794-2.995 13.123-7.91 13.973-10.98.308-1.153-.078-1.92-1.081-2.304.154-.077.154-.077.695.076"/>
            <path fill="#E8B521" d="M2.393 20.579c-.077.307-.154.614-.386.537-.926-.46-1.312-1.152-1.158-2.303-.077.614.077 1.151.386 1.535.077-.537.154-1.152.309-1.766.154.307.463.46.849.614.232.461 0 1.383 0 1.383"/>
            <path fill="#D37D41" d="M.85 23.496v-.614.614m33.964-19.58l.926.614c.695.615 1.004 1.536.695 2.765-1.158 4.53-10.19 11.594-19.916 15.664C7.18 26.952.386 26.799.85 22.882a2.514 2.514 0 0 0 .386 1.69c-.077-.538-.077-1.152-.077-1.767 6.098 6.45 33.656-10.289 33.965-17.353.077-1.306-.618-1.766-1.004-1.997l.695.461"/>
            <path fill="#417BA4" d="M1.775 27.95c-.077-.384-.154-.691-.077-1.152-.077.384 0 .768.077 1.152"/>
            <path fill="#417BA4" d="M38.982 7.755c.54.615.618 1.46.386 2.534-1.235 4.838-10.652 12.21-21.15 16.586-9.881 4.223-17.06 4.07-16.52-.154-.077.692.077 1.383.463 1.843-.154-.537-.386-1.075-.463-1.766 1.621 2.304 7.874 1.766 15.825-1.612 10.19-4.3 19.375-11.595 20.688-16.279.308-1.152.077-1.996-.54-2.61.462.46.925.998 1.311 1.458"/>
            <path fill="#E8B521" d="M36.667 19.657c.154.538 0 .922-.155 1.152-4.014 3.609-9.958 7.295-16.21 9.905-9.263 3.84-16.21 4.07-16.828.845-.078-.307 0-.077.077-.154 0 .077 0 .538.386 1.075-.077-.153-.155-.307-.309-.46-.077-.077-.077-.154-.154-.308l-.463-.92c1.775 2.303 8.105 1.842 16.364-1.767 6.253-2.61 12.197-6.373 16.211-9.905.695-.308.926.23 1.08.537"/>
            <path fill="#417BA4" d="M13.509 36.32c.077.153.154.537-.155.614-3.319.537-5.635.307-6.793-.921-.386-.461-.926-1.075-1.312-1.536 1.004 1.305 3.474 1.612 7.025 1.075.694 0 1.158.614 1.235.768"/>
            <path fill="#D37D41" d="M23.544 36.704c.077.076.077.46-.463.69-6.33 2.458-11.27 2.995-13.277 1.613a20.1 20.1 0 0 0-1.544-1.152c1.93 1.613 7.101 1.075 13.894-1.535 1.004-.307 1.39.384 1.39.384"/>
            <path fill="#417BA4" d="M43.846 23.496c-.078.538-.155 1.152-.155 1.613 0 .077 0 .153-.077.307-1.158 3.916-8.877 9.982-17.368 13.591-5.558 2.38-10.035 2.995-12.274 2.15-.54-.307-1.312-.537-1.776-.844 7.488 3.07 30.646-9.445 31.727-17.2l-.077.383"/>
            <path fill="#E8B521" d="M42.302 29.64c-3.165 6.526-17.986 13.82-23.853 12.9-.617-.078-1.467-.308-2.007-.461 2.084.614 6.021-.077 10.807-2.074 7.72-3.301 14.744-8.753 15.825-12.285-.232.614-.463 1.382-.772 1.92"/>
            <path fill="#417BA4" d="M37.516 36.243c0 .077-.155.384-.54.614-2.008 1.613-4.787 3.302-7.565 4.454-2.393.998-4.478 1.535-6.022 1.612h-2.315c1.852.077 4.477-.537 7.719-1.843 3.165-1.382 6.33-3.148 8.568-5.067.078 0 .078-.077.155-.077 0 0 0 .077.077.077s.077.153-.077.23M6.02 9.214c-.077-.307-.154-.46-.077-.844 0-.077 0-.154.077-.307.309-.384.695-.692 1.158-1.076-.077.308-.077.538.077.692-.463.537-.849.998-1.235 1.535"/>
            <path fill="#D37D41" d="M3.705 12.67c-.154-.307-.309-.615-.309-1.075 0-.077 0-.154.078-.384L4.4 9.829c-.077.537-.077.921.232 1.151-.386.691-.695 1.152-.927 1.69"/>
            <path fill="#417BA4" d="M2.161 16.509c-.308-.384-.386-.845-.308-1.382 0-.154 0-.307.077-.46.154-.538.386-1 .617-1.537-.154.615-.077 1.152.155 1.613-.155.614-.463 1.152-.54 1.766"/>
            <path fill="#E8B521" d="M1.312 20.502c-.308-.46-.463-.922-.386-1.536l.155-1.152.154-.69c-.154.69-.077 1.381.309 1.765-.155.384-.232 1.075-.232 1.613"/>
            <path fill="#D37D41" d="M1.235 24.571c-.309-.307-.386-.614-.386-1.075 0-.537-.077-1.382-.077-1.92 0 .538.154.922.386 1.306 0 .538.077 1.152.077 1.69"/>
            <path fill="#417BA4" d="M2.161 28.564a1.67 1.67 0 0 1-.386-.614c-.154-.537-.386-1.382-.54-1.92.077.307.154.538.386.845.154.614.309 1.152.54 1.69M5.867 8.215c0-.077.077-.307.077-.384.231-.384.386-.614.695-.998.386-.307.694-.614 1.08-.921-.231.383-.463.767-.54 1.074-.463.384-.926.768-1.312 1.23"/>
            <path fill="#D37D41" d="M3.55 11.287c0-.153.078-.383.155-.537.077-.307.309-.46.463-.691.31-.46.618-1.075 1.004-1.459l.232-.384c-.464.538-.695.998-1.004 1.766-.232.384-.618.845-.85 1.306"/>
            <path fill="#417BA4" d="M1.853 14.743c0-.077.077-.307.077-.384.154-.538.54-1.382.695-1.92 0 .307-.078.461-.155.691-.231.538-.386 1.075-.617 1.613"/>
        </g>
        <path fill="#417BA4" d="M99.535 23.39c0-6.366 4.651-10.61 10.62-10.61 3.566 0 5.969 1.65 7.52 3.694.387.472.154 1.1-.388 1.415l-1.396.707c-.387.157-.852.079-1.085-.314-1.085-1.415-2.79-2.358-4.651-2.358-4.031 0-6.977 3.144-6.977 7.466 0 4.323 3.024 7.466 6.977 7.466 1.938 0 3.643-.943 4.651-2.357.31-.393.698-.472 1.085-.315l1.396.708c.542.314.62.943.31 1.414-1.55 2.044-3.954 3.694-7.52 3.694-5.968 0-10.542-4.322-10.542-10.61zm35.814 0c0-4.951 2.79-8.88 6.977-10.138.155-.079.387-.079.62-.157.93-.157 1.86-.393 2.79-.393 6.047 0 10.388 4.48 10.388 10.61 0 6.13-4.186 10.688-10.388 10.688-6.046 0-10.387-4.48-10.387-10.61zm17.21 0c0-4.322-2.637-7.466-6.745-7.466-4.109 0-6.744 3.144-6.744 7.466 0 4.166 2.635 7.466 6.744 7.466 4.108 0 6.744-3.3 6.744-7.466zM91.704 13.016h-3.178c-.387 0-.698.315-.853.55l-7.286 18.705c-.31.629.155 1.336.852 1.336h2.093c.388 0 .698-.314.853-.55l1.318-3.38 1.008-3.143 1.007-2.83 2.559-6.994 3.643 9.745h-3.643c-.388 0-.698.315-.93.629l-.62 1.965c-.078.314.077.629.464.629h5.66l1.317 3.379c.078.393.465.55.853.55h2.093c.62 0 1.085-.629.852-1.336l-7.054-18.705c-.232-.235-.542-.55-1.008-.55zM80.31 21.583h-6.667v-5.345h9.458c.387 0 .697-.314.852-.55l.543-1.336c.31-.628-.155-1.336-.853-1.336H71.008c-.543 0-.93.393-.93.943v18.705c0 .55.387.943.93.943h1.783c.542 0 .93-.393.93-.943v-7.938h6.124c.388 0 .698-.314.853-.55l.542-1.336c.233-.629-.232-1.257-.93-1.257zm39.535-8.567c-.698 0-1.163.943-.698 1.493l.853 1.337c.155.314.465.392.698.392h5.116v17.448h3.566V16.16h5.116c.31 0 .543-.157.698-.393.31-.472.542-.865.93-1.179.543-.55.078-1.572-.62-1.572h-15.659zm54.651.55l-4.108 10.06c-.078.157-.078.472 0 .707l1.317 3.065a.456.456 0 0 0 .853 0l3.799-9.116v14.382c0 .55.387.943.93.943h1.783c.542 0 .93-.393.93-.943V13.959c0-.55-.388-.943-.93-.943h-3.566c-.543 0-.775.157-1.008.55zm-4.729 17.526c.62 0 1.086-.629.853-1.336l-1.395-3.222-5.272-12.968c-.155-.393-.465-.55-.852-.55h-3.489c-.542 0-.93.393-.93.943v18.705c0 .55.388.943.93.943h1.783c.543 0 .93-.393.93-.943V18.36l4.962 12.182c.155.393.465.55.853.55h1.627zM40.62 5.314H40V5h1.628v.314h-.698V7.28h-.31V5.314zm3.256.079l-.698 1.886h-.077l-.698-1.886v1.886h-.31V5h.388l.62 1.65.62-1.65h.388v2.2h-.31V5.394h.077zM181.627 12.414H181V12h1.647v.414h-.706V15h-.314v-2.586zm3.138.103L184.059 15h-.079l-.705-2.483V15h-.314v-2.897h.392l.627 2.173.628-2.173H185V15h-.314v-2.483h.079z"/>
    </g>
</svg>
