<svg xmlns="http://www.w3.org/2000/svg" xmlns:xlink="http://www.w3.org/1999/xlink" width="179" height="42" viewBox="0 0 179 42">
    <defs>
        <path id="a" d="M25.742 39.195c5.169-1.348 9.475-4.848 11.91-9.478-1.395.502-3.379 1.032-6.143 1.434-1.18 2.914-2.738 5.048-4.157 6.538a19.264 19.264 0 0 1-1.61 1.506zM4.354 29.724a18.882 18.882 0 0 0 11.457 9.343c-1.982-1.688-4.176-4.238-5.69-7.968-2.568-.394-4.435-.896-5.767-1.375zM21.001 2.199c-9.878 0-17.995 7.658-18.74 17.346h2.918L15.608 9.116l5.33 5.33 5.33-5.33 10.43 10.43h3.042C38.994 9.855 30.877 2.198 21 2.198zM22.1 29.607c3.117-.034 5.705-.214 7.838-.471.689-2.07 1.149-4.518 1.241-7.392H22.1v7.863zm0 9.486c1.853-1.057 4.855-3.326 6.903-7.639-1.972.195-4.258.324-6.903.352v7.287zm-2.199-7.287c-2.794-.029-5.192-.17-7.239-.383 2.187 4.573 5.45 6.874 7.24 7.85v-7.467zm-9.434-10.062c.094 2.85.558 5.283 1.25 7.346 2.2.282 4.896.482 8.184.517v-7.863h-9.434zm12.46-2.199l-7.319-7.32-7.32 7.32h14.64zm3.11 0h7.552l-7.32-7.32-3.776 3.776 3.544 3.544zM2.218 21.744a18.68 18.68 0 0 0 .874 4.977c.586.365 2.37 1.289 6.213 1.996-.579-2.024-.955-4.34-1.036-6.973H2.218zm36.693 4.97c.504-1.577.804-3.245.872-4.97h-6.408c-.082 2.679-.472 5.016-1.055 7.045 4.17-.725 6.027-1.716 6.591-2.075zM21.001 0C32.579 0 42 9.42 42 21s-9.42 21-21 21S0 32.58 0 21 9.42 0 21 0z"/>
        <linearGradient id="b" x1="0%" x2="0%" y1="0%" y2="1600%">
            <stop offset="0%" stop-color="#95E700"/>
            <stop offset="100%" stop-color="#0290FC"/>
        </linearGradient>
        <path id="d" d="M25.742 39.195c5.169-1.348 9.475-4.848 11.91-9.478-1.395.502-3.379 1.032-6.143 1.434-1.18 2.914-2.738 5.048-4.157 6.538a19.264 19.264 0 0 1-1.61 1.506zM4.354 29.724a18.882 18.882 0 0 0 11.457 9.343c-1.982-1.688-4.176-4.238-5.69-7.968-2.568-.394-4.435-.896-5.767-1.375zM21.001 2.199c-9.878 0-17.995 7.658-18.74 17.346h2.918L15.608 9.116l5.33 5.33 5.33-5.33 10.43 10.43h3.042C38.994 9.855 30.877 2.198 21 2.198zM22.1 29.607c3.117-.034 5.705-.214 7.838-.471.689-2.07 1.149-4.518 1.241-7.392H22.1v7.863zm0 9.486c1.853-1.057 4.855-3.326 6.903-7.639-1.972.195-4.258.324-6.903.352v7.287zm-2.199-7.287c-2.794-.029-5.192-.17-7.239-.383 2.187 4.573 5.45 6.874 7.24 7.85v-7.467zm-9.434-10.062c.094 2.85.558 5.283 1.25 7.346 2.2.282 4.896.482 8.184.517v-7.863h-9.434zm12.46-2.199l-7.319-7.32-7.32 7.32h14.64zm3.11 0h7.552l-7.32-7.32-3.776 3.776 3.544 3.544zM2.218 21.744a18.68 18.68 0 0 0 .874 4.977c.586.365 2.37 1.289 6.213 1.996-.579-2.024-.955-4.34-1.036-6.973H2.218zm36.693 4.97c.504-1.577.804-3.245.872-4.97h-6.408c-.082 2.679-.472 5.016-1.055 7.045 4.17-.725 6.027-1.716 6.591-2.075zM21.001 0C32.579 0 42 9.42 42 21s-9.42 21-21 21S0 32.58 0 21 9.42 0 21 0z"/>
        <linearGradient id="e" x1="1.55%" x2="98.45%" y1="0%" y2="98.438%">
            <stop offset="0%" stop-color="#95E700"/>
            <stop offset="100%" stop-color="#0290FC"/>
        </linearGradient>
        <path id="g" d="M14.938 13.378c0 .229-.192.42-.419.42h-2.641a.426.426 0 0 1-.42-.42V7.147c0-.088-.122-.122-.158-.035l-2.482 4.989a.748.748 0 0 1-.613.367h-1.45a.745.745 0 0 1-.613-.367L3.658 7.112c-.035-.087-.158-.053-.158.035v6.231c0 .229-.191.42-.419.42H.44a.425.425 0 0 1-.42-.42V.565C.02.338.213.144.44.144h2.676c.245 0 .49.159.612.37l3.586 7.14c.069.14.244.14.315 0L11.23.513a.748.748 0 0 1 .613-.37h2.676c.227 0 .42.194.42.421v12.813z"/>
        <path id="i" d="M.508 13.798a.432.432 0 0 1-.431-.42V.564c0-.226.197-.42.431-.42h9.903c.234 0 .431.194.431.42V3.12c0 .228-.197.42-.43.42h-6.38a.356.356 0 0 0-.36.35v1.26c0 .194.161.35.36.35h5.103c.234 0 .432.194.432.42V8.25a.433.433 0 0 1-.432.421H4.031a.356.356 0 0 0-.36.349v1.05c0 .193.162.351.36.351h6.38a.43.43 0 0 1 .431.42v2.538c0 .228-.197.42-.43.42H.507z"/>
        <path id="k" d="M6.186 10.42c2.042 0 3.123-1.4 3.123-3.448 0-2.049-1.081-3.431-3.123-3.431H4.01a.347.347 0 0 0-.343.35v6.178c0 .194.153.352.343.352h2.177zM6.444.145c4.186 0 6.33 3.117 6.33 6.828 0 3.728-2.144 6.826-6.33 6.826H.646a.421.421 0 0 1-.412-.42V.565c0-.227.189-.421.412-.421h5.798z"/>
        <path id="m" d="M.497 13.798c-.25 0-.463-.192-.463-.42V.564c0-.226.212-.42.463-.42H3.43c.251 0 .464.194.464.42v12.814c0 .228-.213.42-.464.42H.497z"/>
        <path id="o" d="M13.77 11.225a7.243 7.243 0 0 1-6.304 3.703c-3.964 0-7.293-3.321-7.293-7.39 0-4.07 3.329-7.39 7.293-7.39 2.676 0 5.018 1.479 6.287 3.668.106.183.035.474-.159.565l-2.43 1.113c-.228.128-.476.055-.616-.182a3.727 3.727 0 0 0-3.082-1.643c-2.062 0-3.735 1.717-3.735 3.869 0 2.153 1.673 3.869 3.735 3.869a3.7 3.7 0 0 0 3.082-1.643c.14-.236.388-.31.615-.2l2.449 1.112c.194.074.281.366.158.549z"/>
        <path id="q" d="M3.397 13.798H.675a.431.431 0 0 1-.43-.42V.564c0-.226.197-.42.43-.42h2.722c.234 0 .43.194.43.42v12.814c0 .228-.196.42-.43.42z"/>
        <path id="s" d="M.722 13.798c-.24 0-.444-.192-.444-.42V.564c0-.226.203-.42.444-.42h2.795c.242 0 .446.194.446.42v9.506c0 .192.166.35.37.35h6.111c.242 0 .444.192.444.42v2.538c0 .228-.202.42-.444.42H.722z"/>
        <path id="u" d="M5.993 8.301a.248.248 0 0 0 .236.333h2.38a.248.248 0 0 0 .236-.333l-1.29-3.343c-.035-.122-.217-.122-.253 0l-1.31 3.343zm-5.67 5.497a.283.283 0 0 1-.273-.385L5.466.529c.091-.227.344-.385.598-.385h2.727c.254 0 .508.158.6.385l5.397 12.884a.283.283 0 0 1-.272.385h-3.09a.631.631 0 0 1-.582-.385l-.508-1.278a.532.532 0 0 0-.49-.332H4.992a.532.532 0 0 0-.49.332l-.508 1.278a.63.63 0 0 1-.581.385H.323z"/>
        <path id="w" d="M10.292 13.798a.872.872 0 0 1-.688-.332L3.937 6.464c-.071-.106-.212-.052-.212.069v6.845c0 .228-.195.42-.424.42H.634a.428.428 0 0 1-.423-.42V.564c0-.226.194-.42.423-.42h2.137c.265 0 .53.122.688.332l5.669 7.02c.07.105.21.054.21-.07V.565a.43.43 0 0 1 .425-.42h2.667c.229 0 .423.194.423.42v12.814c0 .228-.194.42-.423.42h-2.138z"/>
        <path id="y" d="M3.62 3.89v6.18c0 .192.156.35.35.35h2.22c2.082 0 3.184-1.401 3.184-3.448 0-2.048-1.102-3.432-3.184-3.432H3.97a.35.35 0 0 0-.35.35zM.54 13.798a.425.425 0 0 1-.419-.42V.565c0-.227.193-.421.42-.421h5.912c4.268 0 6.454 3.116 6.454 6.828 0 3.728-2.186 6.826-6.454 6.826H.541z"/>
        <path id="A" d="M.152 6.68v-.178C.203 3.023 3.277.198 6.965.198c2.059 0 3.935.9 5.187 2.273a.346.346 0 0 1-.067.506l-2.024 1.31a.475.475 0 0 1-.61-.064 3.597 3.597 0 0 0-2.486-.978c-1.941 0-3.489 1.483-3.489 3.346s1.548 3.347 3.49 3.347a3.36 3.36 0 0 0 2.65-1.279.53.53 0 0 0 .098-.268v-.047c0-.079-.081-.16-.164-.16H6.999a.391.391 0 0 1-.395-.378V5.944c0-.205.181-.38.395-.38h5.4c.213 0 .395.175.395.38v6.425a.393.393 0 0 1-.396.378h-1.795a.392.392 0 0 1-.394-.378v-.459c0-.094-.132-.141-.197-.062-.676.741-1.86 1.136-3.047 1.136-3.688 0-6.762-2.825-6.813-6.303z"/>
        <path id="C" d="M7.016 9.938c1.98 0 3.497-1.484 3.497-3.346 0-1.864-1.517-3.346-3.497-3.346-1.929 0-3.495 1.482-3.495 3.346 0 1.862 1.566 3.346 3.495 3.346zm0-9.74c3.76 0 6.828 2.873 6.828 6.394 0 3.52-3.068 6.392-6.828 6.392-3.71 0-6.827-2.873-6.827-6.392C.19 3.072 3.306.198 7.016.198z"/>
        <path id="E" d="M12.633.206c.189 0 .299.194.236.357L8.185 12.491a.57.57 0 0 1-.52.357H5.307a.568.568 0 0 1-.518-.357L.119.563C.055.4.167.206.355.206h2.672c.22 0 .425.147.504.357l2.845 7.83c.031.111.189.111.22 0L9.458.562a.548.548 0 0 1 .504-.357h2.672z"/>
        <path id="G" d="M10.347.206c.23 0 .425.179.425.39V2.96c0 .21-.194.39-.425.39H4.058c-.195 0-.355.146-.355.324V4.84c0 .178.16.325.355.325H9.09c.23 0 .425.179.425.39V7.71c0 .21-.195.388-.425.388H4.058c-.195 0-.355.146-.355.325v.971c0 .18.16.325.355.325h6.29c.23 0 .424.179.424.39v2.349c0 .21-.194.39-.425.39H.587c-.23 0-.426-.18-.426-.39V.595c0-.21.196-.389.425-.389h9.761z"/>
        <path id="I" d="M6.02 6.527c1.29 0 1.774-.794 1.774-1.67 0-.972-.485-1.702-1.774-1.702H3.585a.325.325 0 0 0-.323.326v2.722c0 .178.145.324.323.324H6.02zM8.615 9.3l2.306 3.225c.097.145 0 .324-.16.324H7.68a.777.777 0 0 1-.612-.324L5.1 9.72a.645.645 0 0 0-.515-.259h-1a.323.323 0 0 0-.323.324v2.674c0 .21-.177.39-.388.39H.44a.394.394 0 0 1-.387-.39V.595C.053.385.23.206.44.206h5.756c3.226 0 4.709 2.107 4.709 4.62 0 1.669-.693 3.225-2.192 4.05-.162.082-.194.277-.098.423z"/>
        <path id="K" d="M11.605.206c.214 0 .395.179.395.39v11.863c0 .21-.181.39-.395.39h-1.99a.817.817 0 0 1-.642-.308l-5.28-6.484c-.065-.097-.196-.048-.196.065v6.337c0 .21-.182.39-.396.39H.62a.398.398 0 0 1-.395-.39V.595c0-.21.181-.389.395-.389h1.99c.245 0 .492.114.64.309l5.28 6.5c.066.095.197.048.197-.066V.595c0-.21.182-.389.396-.389h2.483z"/>
        <path id="M" d="M7.426 8.067c.158 0 .253-.162.206-.308L6.515 4.664a.114.114 0 0 0-.22 0L5.163 7.759c-.048.146.047.308.204.308h2.06zM8.103.563l4.669 11.928c.063.163-.047.357-.235.357H9.864a.547.547 0 0 1-.503-.357l-.44-1.182a.46.46 0 0 0-.425-.308H4.298c-.189 0-.361.13-.424.308l-.44 1.182a.55.55 0 0 1-.503.357H.258c-.19 0-.3-.194-.236-.357L4.707.563a.567.567 0 0 1 .52-.357h2.357c.22 0 .44.146.52.357z"/>
        <path id="O" d="M11.56.206c.213 0 .394.179.394.39v11.863c0 .21-.18.39-.394.39H9.57a.818.818 0 0 1-.643-.308l-5.28-6.484c-.065-.097-.196-.048-.196.065v6.337c0 .21-.182.39-.396.39H.573a.398.398 0 0 1-.395-.39V.595c0-.21.181-.389.395-.389h1.99c.245 0 .492.114.64.309l5.28 6.5c.066.095.198.048.198-.066V.595c0-.21.181-.389.395-.389h2.484z"/>
        <path id="Q" d="M12.665 9.306c.18.063.262.316.148.474-1.158 1.926-3.36 3.204-5.838 3.204-3.67 0-6.752-2.872-6.752-6.392C.223 3.071 3.305.198 6.975.198c2.478 0 4.646 1.278 5.82 3.174.1.156.033.41-.146.488l-2.25.963a.419.419 0 0 1-.57-.158c-.62-.852-1.664-1.42-2.854-1.42-1.908 0-3.458 1.483-3.458 3.347 0 1.861 1.55 3.345 3.458 3.345 1.206 0 2.233-.568 2.854-1.42a.439.439 0 0 1 .57-.174l2.266.963z"/>
        <path id="S" d="M10.33.206c.23 0 .424.179.424.39V2.96c0 .21-.194.39-.425.39H4.04c-.195 0-.355.146-.355.324V4.84c0 .178.16.325.355.325h5.032c.23 0 .425.179.425.39V7.71c0 .21-.196.388-.425.388H4.04c-.195 0-.355.146-.355.325v.971c0 .18.16.325.355.325h6.29c.23 0 .424.179.424.39v2.349c0 .21-.194.39-.425.39H.57c-.231 0-.426-.18-.426-.39V.595c0-.21.195-.389.425-.389h9.761z"/>
    </defs>
    <g fill="none" fill-rule="evenodd">
        <g>
            <mask id="c" fill="#fff">
                <use xlink:href="#a"/>
            </mask>
            <path fill="url(#b)" fill-rule="nonzero" d="M0 42.667h42V0H0z" mask="url(#c)"/>
        </g>
        <g>
            <mask id="f" fill="#fff">
                <use xlink:href="#d"/>
            </mask>
            <path fill="url(#e)" fill-rule="nonzero" d="M0 42.667h42V0H0z" mask="url(#f)"/>
        </g>
        <g transform="translate(49 5)">
            <mask id="h" fill="#fff">
                <use xlink:href="#g"/>
            </mask>
            <path fill="#2E3337" fill-rule="nonzero" d="M-3.222 17.05H18.18V-3.108H-3.222z" mask="url(#h)"/>
        </g>
        <g transform="translate(66 5)">
            <mask id="j" fill="#fff">
                <use xlink:href="#i"/>
            </mask>
            <path fill="#2E3337" fill-rule="nonzero" d="M-3.288 17.05h17.495V-3.108H-3.288z" mask="url(#j)"/>
        </g>
        <g transform="translate(79 5)">
            <mask id="l" fill="#fff">
                <use xlink:href="#k"/>
            </mask>
            <path fill="#2E3337" fill-rule="nonzero" d="M-2.9 17.05h18.809V-3.108h-18.81z" mask="url(#l)"/>
        </g>
        <g transform="translate(93 5)">
            <mask id="n" fill="#fff">
                <use xlink:href="#m"/>
            </mask>
            <path fill="#2E3337" fill-rule="nonzero" d="M-3.824 17.05H7.75V-3.108H-3.824z" mask="url(#n)"/>
        </g>
        <g transform="translate(98 5)">
            <mask id="p" fill="#fff">
                <use xlink:href="#o"/>
            </mask>
            <path fill="#2E3337" fill-rule="nonzero" d="M-3.078 18.287h20.156V-3.21H-3.078z" mask="url(#p)"/>
        </g>
        <g transform="translate(114 5)">
            <mask id="r" fill="#fff">
                <use xlink:href="#q"/>
            </mask>
            <path fill="#2E3337" fill-rule="nonzero" d="M-3.338 17.05H7.41V-3.108H-3.338z" mask="url(#r)"/>
        </g>
        <g transform="translate(124 5)">
            <mask id="t" fill="#fff">
                <use xlink:href="#s"/>
            </mask>
            <path fill="#2E3337" fill-rule="nonzero" d="M-3.26 17.05h17.685V-3.108H-3.26z" mask="url(#t)"/>
        </g>
        <g transform="translate(135 5)">
            <mask id="v" fill="#fff">
                <use xlink:href="#u"/>
            </mask>
            <path fill="#2E3337" fill-rule="nonzero" d="M-3.33 17.05h21.498V-3.108H-3.33z" mask="url(#v)"/>
        </g>
        <g transform="translate(150 5)">
            <mask id="x" fill="#fff">
                <use xlink:href="#w"/>
            </mask>
            <path fill="#2E3337" fill-rule="nonzero" d="M-3.116 17.05h19.295V-3.108H-3.116z" mask="url(#x)"/>
        </g>
        <g transform="translate(166 5)">
            <mask id="z" fill="#fff">
                <use xlink:href="#y"/>
            </mask>
            <path fill="#2E3337" fill-rule="nonzero" d="M-3.075 17.05h19.178V-3.108H-3.075z" mask="url(#z)"/>
        </g>
        <g transform="translate(48 23)">
            <mask id="B" fill="#fff">
                <use xlink:href="#A"/>
            </mask>
            <path fill="#2E3337" fill-rule="nonzero" d="M-3.175 16.18H16.12V-2.998H-3.175z" mask="url(#B)"/>
        </g>
        <g transform="translate(61 23)">
            <mask id="D" fill="#fff">
                <use xlink:href="#C"/>
            </mask>
            <path fill="#2E3337" fill-rule="nonzero" d="M-3.062 16.18h20.157V-2.998H-3.062z" mask="url(#D)"/>
        </g>
        <g transform="translate(75 23)">
            <mask id="F" fill="#fff">
                <use xlink:href="#E"/>
            </mask>
            <path fill="#2E3337" fill-rule="nonzero" d="M-3.095 16.175h19.178V-3.12H-3.095z" mask="url(#F)"/>
        </g>
        <g transform="translate(90 23)">
            <mask id="H" fill="#fff">
                <use xlink:href="#G"/>
            </mask>
            <path fill="#2E3337" fill-rule="nonzero" d="M-3.376 16.175H14.31V-3.12H-3.376z" mask="url(#H)"/>
        </g>
        <g transform="translate(102 23)">
            <mask id="J" fill="#fff">
                <use xlink:href="#I"/>
            </mask>
            <path fill="#2E3337" fill-rule="nonzero" d="M-3.155 16.175h17.322V-3.12H-3.155z" mask="url(#J)"/>
        </g>
        <g transform="translate(113 23)">
            <mask id="L" fill="#fff">
                <use xlink:href="#K"/>
            </mask>
            <path fill="#2E3337" fill-rule="nonzero" d="M-3.048 16.175h18.32V-3.12h-18.32z" mask="url(#L)"/>
        </g>
        <g transform="translate(128 23)">
            <mask id="N" fill="#fff">
                <use xlink:href="#M"/>
            </mask>
            <path fill="#2E3337" fill-rule="nonzero" d="M-3.192 16.175h19.178V-3.12H-3.192z" mask="url(#N)"/>
        </g>
        <g transform="translate(141 23)">
            <mask id="P" fill="#fff">
                <use xlink:href="#O"/>
            </mask>
            <path fill="#2E3337" fill-rule="nonzero" d="M-3.093 16.175h18.319V-3.12h-18.32z" mask="url(#P)"/>
        </g>
        <g transform="translate(154 23)">
            <mask id="R" fill="#fff">
                <use xlink:href="#Q"/>
            </mask>
            <path fill="#2E3337" fill-rule="nonzero" d="M-3.104 16.18h19.296V-2.998H-3.104z" mask="url(#R)"/>
        </g>
        <g transform="translate(168 23)">
            <mask id="T" fill="#fff">
                <use xlink:href="#S"/>
            </mask>
            <path fill="#2E3337" fill-rule="nonzero" d="M-3.394 16.175h17.685V-3.12H-3.394z" mask="url(#T)"/>
        </g>
    </g>
</svg>
