
<svg xmlns="http://www.w3.org/2000/svg" viewBox="0 0 254.128 60.275" width="179" height="42">
  <defs>
    <radialGradient id="a" cx=".15" cy=".115" r="1.204" gradientUnits="objectBoundingBox">
      <stop offset="0" stop-color="#95e700"/>
      <stop offset="1" stop-color="#008fff"/>
    </radialGradient>
    <style>
      .b{fill-rule:evenodd;fill:#2e3337}
    </style>
  </defs>
  <path fill="url(#a)" fill-rule="evenodd" d="M79.106 67.639a26.432 26.432 0 002.3-2.168 29.689 29.689 0 005.924-9.38 44.466 44.466 0 008.758-2.061 26.917 26.917 0 01-16.982 13.609zM48.6 54.03A43.547 43.547 0 0056.825 56a29.479 29.479 0 008.114 11.441A26.949 26.949 0 0148.6 54.03zm23.744-39.475a26.923 26.923 0 0126.724 24.9h-4.336L79.857 24.494l-7.6 7.642-7.6-7.642-14.873 14.94H45.62a26.9 26.9 0 0126.724-24.879zm1.567 39.325V42.589h12.944a37.925 37.925 0 01-1.76 10.6 107.711 107.711 0 01-11.183.687zm0 13.609V57.035c3.778-.043 7.041-.215 9.853-.515a24.666 24.666 0 01-9.853 10.969zm-3.134-10.454v10.711a24.815 24.815 0 01-10.325-11.269c2.919.3 6.332.515 10.325.558zM57.318 42.589h13.459V53.88a97.647 97.647 0 01-11.677-.751 37.534 37.534 0 01-1.782-10.539zm17.773-3.155H54.227l10.432-10.5zm4.443 0l-5.044-5.087 5.388-5.409 10.432 10.5zm-33.98 3.155h8.629a40.09 40.09 0 001.481 10c-5.474-1.009-8.028-2.34-8.865-2.855a28.014 28.014 0 01-1.245-7.148zm52.332 7.126c-.794.515-3.456 1.932-9.4 2.984a40.629 40.629 0 001.5-10.11h9.144a26.112 26.112 0 01-1.245 7.126zM72.344 11.4a30.138 30.138 0 1029.944 30.137A30.08 30.08 0 0072.344 11.4z" transform="translate(-42.4 -11.4)"/>
  <path d="M90.82 26.51V7.77a.619.619 0 00-.6-.622h-3.885a1.125 1.125 0 00-.9.537l-5.24 10.453a.238.238 0 01-.451 0L74.528 7.684a1.1 1.1 0 00-.9-.537H69.74a.619.619 0 00-.6.622V26.51a.619.619 0 00.6.622h3.842a.619.619 0 00.6-.622v-9.1a.122.122 0 01.236-.043l3.606 7.3a1.1 1.1 0 00.9.537h2.1a1.125 1.125 0 00.9-.537l3.606-7.3a.122.122 0 01.236.043v9.123a.619.619 0 00.6.622h3.842a.654.654 0 00.6-.644M94.49 27.132h14.038a.619.619 0 00.6-.622v-3.714a.619.619 0 00-.6-.622h-9.037a.522.522 0 01-.515-.515v-1.546a.522.522 0 01.515-.515h7.234a.619.619 0 00.6-.622v-3.37a.619.619 0 00-.6-.622h-7.234a.522.522 0 01-.515-.515v-1.847a.522.522 0 01.515-.515h9.037a.619.619 0 00.6-.622V7.77a.634.634 0 00-.6-.622H94.515a.619.619 0 00-.6.622v18.74a.588.588 0 00.58.622M120.442 22.195h-3.241a.522.522 0 01-.515-.515v-9.032a.522.522 0 01.515-.515h3.241c3.027 0 4.636 2.018 4.636 5.023s-1.61 5.044-4.636 5.044m.386-15.047h-8.608a.619.619 0 00-.6.622V26.51a.619.619 0 00.6.622h8.608c6.2 0 9.4-4.529 9.4-9.981-.021-5.431-3.2-10-9.4-10M133.045 27.132h3.864a.619.619 0 00.6-.622V7.77a.634.634 0 00-.6-.622h-3.864a.619.619 0 00-.6.622v18.74a.592.592 0 00.6.622M159.273 22.324a.547.547 0 00-.236-.773l-3.542-1.567a.673.673 0 00-.88.279 5.426 5.426 0 11-4.465-8.565 5.476 5.476 0 014.465 2.3.628.628 0 00.88.258l3.52-1.567a.6.6 0 00.236-.794 10.475 10.475 0 10-9.08 15.584 10.4 10.4 0 009.1-5.152M165.841 27.132a.619.619 0 00.6-.622V7.77a.633.633 0 00-.6-.622h-3.865a.619.619 0 00-.6.622v18.74a.619.619 0 00.6.622zM177.285 27.132h13.37a.619.619 0 00.6-.622v-3.714a.619.619 0 00-.6-.622h-8.393a.522.522 0 01-.515-.515V7.77a.637.637 0 00-.623-.622h-3.839a.619.619 0 00-.6.622v18.74a.6.6 0 00.6.622M200.142 19.082l1.825-4.894a.194.194 0 01.365 0l1.8 4.894a.365.365 0 01-.322.494h-3.327a.359.359 0 01-.343-.494m-7.942 8.049h4.336a.891.891 0 00.816-.558l.708-1.867a.767.767 0 01.687-.494h6.8a.766.766 0 01.687.494l.708 1.867a.859.859 0 00.816.558h4.336a.409.409 0 00.386-.558l-7.577-18.847a.91.91 0 00-.837-.558h-3.821a.921.921 0 00-.837.558l-7.593 18.843a.409.409 0 00.386.558M228.755 27.132h3.091a.619.619 0 00.6-.622V7.77a.634.634 0 00-.6-.622h-3.842a.619.619 0 00-.6.622v10.046a.164.164 0 01-.3.107l-8.2-10.282a1.272 1.272 0 00-.987-.494h-3.07a.619.619 0 00-.6.622V26.51a.619.619 0 00.6.622h3.842a.619.619 0 00.6-.622v-10a.164.164 0 01.3-.107l8.178 10.239a1.182 1.182 0 00.987.494M240.583 12.643a.522.522 0 01.515-.515h3.241c3.027 0 4.636 2.018 4.636 5.023s-1.61 5.044-4.636 5.044h-3.241a.522.522 0 01-.515-.515zm-4.462 14.489h8.608c6.2 0 9.4-4.529 9.4-9.981 0-5.431-3.177-9.981-9.4-9.981h-8.608a.619.619 0 00-.6.622v18.739a.587.587 0 00.6.6zM85.625 41.256h-7.706a.568.568 0 00-.558.558v2.79a.568.568 0 00.558.558h3.649a.254.254 0 01.236.236v.064a.912.912 0 01-.129.408 4.726 4.726 0 01-3.778 1.91 5.023 5.023 0 113.542-8.586.66.66 0 00.88.086l2.9-1.953a.521.521 0 00.086-.751 9.844 9.844 0 00-7.406-3.413 9.575 9.575 0 100 19.147 5.9 5.9 0 004.357-1.7.156.156 0 01.279.086v.687a.568.568 0 00.558.558h2.554a.568.568 0 00.558-.558v-9.638a.6.6 0 00-.579-.494M97.431 47.807a5.023 5.023 0 114.98-5.023 4.993 4.993 0 01-4.98 5.023m0-14.6a9.575 9.575 0 109.724 9.574 9.726 9.726 0 00-9.724-9.574M125.444 33.572h-3.992a.818.818 0 00-.751.515l-4.272 11.42a.165.165 0 01-.322 0l-4.25-11.42a.842.842 0 00-.751-.515h-3.992a.367.367 0 00-.343.515l6.976 17.408a.848.848 0 00.773.515h3.52a.848.848 0 00.773-.515l7-17.408a.387.387 0 00-.365-.515M140.939 33.572h-12.942a.568.568 0 00-.558.558v17.322a.568.568 0 00.558.558h12.942a.568.568 0 00.558-.558v-3.434a.568.568 0 00-.558-.558h-8.35a.476.476 0 01-.472-.472v-1.416a.476.476 0 01.472-.472h6.676a.568.568 0 00.558-.558v-3.155a.568.568 0 00-.558-.558h-6.676a.476.476 0 01-.472-.472v-1.7a.476.476 0 01.472-.472h8.35a.568.568 0 00.558-.558v-3.455a.578.578 0 00-.558-.6M152.49 42.781h-3.542a.476.476 0 01-.472-.472v-3.971a.476.476 0 01.472-.472h3.542a2.265 2.265 0 012.576 2.49 2.3 2.3 0 01-2.576 2.426zm3.778 4.057a.435.435 0 01.15-.622 6.461 6.461 0 003.2-5.9c0-3.671-2.168-6.74-6.869-6.74h-8.393a.568.568 0 00-.558.558v17.322a.568.568 0 00.558.558h3.54a.568.568 0 00.558-.558v-3.907a.476.476 0 01.472-.472h1.46a.967.967 0 01.751.386l2.876 4.1a1.149 1.149 0 00.9.472h4.486a.293.293 0 00.236-.472zM178.054 33.571h-3.542a.568.568 0 00-.558.558v9.273a.148.148 0 01-.279.086L166.119 34a1.17 1.17 0 00-.923-.451h-2.833a.568.568 0 00-.558.558v17.322a.568.568 0 00.558.558h3.542a.568.568 0 00.558-.558v-9.23a.148.148 0 01.279-.086l7.556 9.466a1.17 1.17 0 00.923.451h2.855a.568.568 0 00.558-.558V34.15a.577.577 0 00-.58-.58M191.321 45.034h-3.067a.325.325 0 01-.3-.451l1.7-4.508a.165.165 0 01.322 0l1.674 4.508a.346.346 0 01-.322.451zm1.009-10.947a.872.872 0 00-.773-.515h-3.52a.848.848 0 00-.773.515l-7 17.408a.375.375 0 00.343.515h3.993a.818.818 0 00.751-.515l.665-1.717a.679.679 0 01.644-.451h6.268a.724.724 0 01.644.451l.665 1.717a.818.818 0 00.751.515h3.993a.367.367 0 00.343-.515zM217.207 33.571h-3.542a.568.568 0 00-.558.558v9.273a.148.148 0 01-.279.086L205.272 34a1.17 1.17 0 00-.923-.451h-2.833a.568.568 0 00-.558.558v17.322a.568.568 0 00.558.558h3.542a.568.568 0 00.558-.558v-9.23a.148.148 0 01.279-.086l7.556 9.466a1.17 1.17 0 00.923.451h2.855a.568.568 0 00.558-.558V34.15a.606.606 0 00-.58-.58M237.664 46.858l-3.263-1.438a.608.608 0 00-.816.258 5.023 5.023 0 110-5.8.588.588 0 00.816.236l3.239-1.429a.532.532 0 00.215-.73 9.577 9.577 0 10.021 9.574.466.466 0 00-.215-.665M253.31 33.572h-12.943a.568.568 0 00-.558.558v17.322a.568.568 0 00.558.558h12.943a.568.568 0 00.558-.558v-3.434a.568.568 0 00-.558-.558h-8.35a.476.476 0 01-.472-.472v-1.416a.476.476 0 01.472-.472h6.676a.568.568 0 00.558-.558v-3.155a.568.568 0 00-.558-.558h-6.676a.476.476 0 01-.472-.472v-1.7a.476.476 0 01.472-.472h8.35a.568.568 0 00.558-.558v-3.455a.578.578 0 00-.558-.6" class="b"/>
</svg>