<svg xmlns="http://www.w3.org/2000/svg" width="303.752" height="60.931" viewBox="0 0 303.752 60.931">
    <defs>
        <style>
            .prefix__cls-1,.prefix__cls-2{fill:#465564}.prefix__cls-2{stroke:#000;stroke-miterlimit:10;stroke-width:.246px}.prefix__cls-3{fill:#efc30a}.prefix__cls-4{fill:#d41e00}.prefix__cls-5{fill:#417ff1}.prefix__cls-6{fill:#19c805}
        </style>
    </defs>
    <g id="prefix__Group_4479" data-name="Group 4479" transform="translate(-9094.019 -857.149)">
        <g id="prefix__Group_4480" data-name="Group 4480" transform="translate(9185.861 871.168)">
            <path id="prefix__Path_1135" d="M519.565 98.087h5.717l7.35 20.753 7.457-20.753h5.711L535.274 127.3h-5.362z" class="prefix__cls-1" data-name="Path 1135" transform="translate(-519.565 -96.796)"/>
            <path id="prefix__Path_1136" d="M659.51 91.96a3.315 3.315 0 0 1 2.444 1.033 3.43 3.43 0 0 1 1.02 2.5 3.388 3.388 0 0 1-1.01 2.472 3.275 3.275 0 0 1-2.416 1.023 3.323 3.323 0 0 1-2.466-1.042 3.488 3.488 0 0 1-1.019-2.532 3.452 3.452 0 0 1 3.445-3.456zm-2.711 8.9h5.421v21.607h-5.42z" class="prefix__cls-1" data-name="Path 1136" transform="translate(-627.298 -91.959)"/>
            <path id="prefix__Path_1137" d="M701.352 96.391h5.421v7.963h3.217v4.667h-3.217v16.94h-5.421v-16.94h-2.78v-4.667h2.78z" class="prefix__cls-1" data-name="Path 1137" transform="translate(-660.849 -95.457)"/>
            <path id="prefix__Path_1138" d="M778.741 132.1h5.422v21.6h-5.422v-2.28a10.623 10.623 0 0 1-3.184 2.175 8.908 8.908 0 0 1-3.461.665 9.616 9.616 0 0 1-7.24-3.247 11.33 11.33 0 0 1-3.056-8.073 11.607 11.607 0 0 1 2.956-8.2 9.417 9.417 0 0 1 7.181-3.2 9.133 9.133 0 0 1 3.65.735 9.972 9.972 0 0 1 3.154 2.2zm-5.7 4.449a5.479 5.479 0 0 0-4.177 1.777 6.4 6.4 0 0 0-1.662 4.558 6.473 6.473 0 0 0 1.692 4.607 5.483 5.483 0 0 0 4.166 1.807 5.585 5.585 0 0 0 4.236-1.778 6.5 6.5 0 0 0 1.682-4.657 6.311 6.311 0 0 0-1.682-4.567 5.653 5.653 0 0 0-4.254-1.75z" class="prefix__cls-1" data-name="Path 1138" transform="translate(-710.753 -123.2)"/>
            <path id="prefix__Path_1139" d="M891.1 94.6h5.421v29.948H891.1z" class="prefix__cls-1" data-name="Path 1139" transform="translate(-812.805 -94.043)"/>
            <path id="prefix__Path_1140" d="M1018.445 100.47l-3.889 3.707a12.043 12.043 0 0 0-8.929-4.194 9.784 9.784 0 0 0-9.921 9.92 10.43 10.43 0 0 0 1.27 5.188 9.1 9.1 0 0 0 3.591 3.558 10.429 10.429 0 0 0 5.159 1.292 10.63 10.63 0 0 0 4.425-.9 15.859 15.859 0 0 0 4.4-3.29l3.77 3.934a20.685 20.685 0 0 1-6.117 4.381 16.708 16.708 0 0 1-6.573 1.222 15.131 15.131 0 0 1-11.151-4.32 14.953 14.953 0 0 1-4.339-11.072 15.155 15.155 0 0 1 1.976-7.765 14.692 14.692 0 0 1 5.66-5.461 15.962 15.962 0 0 1 7.934-2.065 16.84 16.84 0 0 1 12.73 5.869z" class="prefix__cls-1" data-name="Path 1140" transform="translate(-890.979 -94.045)"/>
            <path id="prefix__Path_1141" d="M1144.79 94.6h5.382v10.526a12.349 12.349 0 0 1 3.2-2.056 8.243 8.243 0 0 1 3.257-.685 7.337 7.337 0 0 1 5.422 2.224 7.774 7.774 0 0 1 1.887 5.66v14.279h-5.342v-9.473a23.325 23.325 0 0 0-.358-5.084 3.548 3.548 0 0 0-1.222-1.986 3.43 3.43 0 0 0-2.135-.655 4.025 4.025 0 0 0-2.83 1.092 5.79 5.79 0 0 0-1.638 2.979 24.652 24.652 0 0 0-.239 4.448v8.679h-5.38z" class="prefix__cls-1" data-name="Path 1141" transform="translate(-1013.034 -94.043)"/>
            <path id="prefix__Path_1142" d="M1272.74 132.1h5.422v21.6h-5.422v-2.28a10.625 10.625 0 0 1-3.184 2.175 8.908 8.908 0 0 1-3.461.665 9.617 9.617 0 0 1-7.24-3.247 11.329 11.329 0 0 1-3.055-8.073 11.608 11.608 0 0 1 2.955-8.2 9.417 9.417 0 0 1 7.181-3.2 9.133 9.133 0 0 1 3.65.735 9.972 9.972 0 0 1 3.154 2.2zm-5.7 4.449a5.479 5.479 0 0 0-4.177 1.777 6.405 6.405 0 0 0-1.662 4.558 6.474 6.474 0 0 0 1.692 4.607 5.483 5.483 0 0 0 4.166 1.807 5.585 5.585 0 0 0 4.236-1.778 6.5 6.5 0 0 0 1.682-4.657 6.31 6.31 0 0 0-1.682-4.567 5.654 5.654 0 0 0-4.254-1.75z" class="prefix__cls-1" data-name="Path 1142" transform="translate(-1100.65 -123.2)"/>
            <path id="prefix__Path_1143" d="M1385.051 91.96a3.314 3.314 0 0 1 2.444 1.033 3.43 3.43 0 0 1 1.02 2.5 3.388 3.388 0 0 1-1.01 2.472 3.274 3.274 0 0 1-2.416 1.023 3.323 3.323 0 0 1-2.466-1.042 3.487 3.487 0 0 1-1.019-2.532 3.452 3.452 0 0 1 3.445-3.456zm-2.71 8.9h5.421v21.607h-5.421z" class="prefix__cls-1" data-name="Path 1143" transform="translate(-1199.943 -91.959)"/>
            <path id="prefix__Path_1144" d="M1434.2 132.093h5.422v2.214a13 13 0 0 1 3.341-2.163 8.075 8.075 0 0 1 3.064-.608 7.418 7.418 0 0 1 5.454 2.244 7.706 7.706 0 0 1 1.884 5.64v14.28H1448v-9.462a23.932 23.932 0 0 0-.346-5.138 3.52 3.52 0 0 0-1.209-1.934 3.384 3.384 0 0 0-2.13-.665 3.991 3.991 0 0 0-2.824 1.1 5.869 5.869 0 0 0-1.635 3.045 24.532 24.532 0 0 0-.237 4.383v8.671h-5.419z" class="prefix__cls-1" data-name="Path 1144" transform="translate(-1241.455 -123.196)"/>
        </g>
        <g id="prefix__Group_4481" data-name="Group 4481" transform="translate(9094.019 857.149)">
            <path id="prefix__Path_1145" d="M164.247 243.366h-8.088a7.191 7.191 0 0 1-7.24-7.142V234.4h4.481v2.041a2.666 2.666 0 0 0 2.713 2.509l8.129-.067z" class="prefix__cls-2" data-name="Path 1145" transform="translate(-131.684 -192.394)"/>
            <path id="prefix__Path_1146" d="M287.471 243.366h8.088a7.192 7.192 0 0 0 7.24-7.142V234.4h-4.486v2.041a2.665 2.665 0 0 1-2.713 2.509l-8.129-.067z" class="prefix__cls-2" data-name="Path 1146" transform="translate(-245.406 -192.394)"/>
            <path id="prefix__Path_1147" d="M153.417 62.658v2.812h-4.5v-2.924a7.1 7.1 0 0 1 7.1-7.1h8.224v4.484l-8.164.048a2.684 2.684 0 0 0-2.66 2.68z" class="prefix__cls-2" data-name="Path 1147" transform="translate(-131.686 -45.506)"/>
            <path id="prefix__Path_1148" d="M298.152 62.658v2.812h4.5v-2.924a7.1 7.1 0 0 0-7.1-7.1h-8.224v4.484l8.164.048a2.684 2.684 0 0 1 2.66 2.68z" class="prefix__cls-2" data-name="Path 1148" transform="translate(-245.281 -45.506)"/>
            <path id="prefix__Path_1149" d="M281.766 152.784v-5.363a.08.08 0 0 1 .127-.064 16.153 16.153 0 0 1 1.436 1.216c.634.607.907.911 1 1.023a.178.178 0 0 1 .042.117v3.072a1.013 1.013 0 0 1-1.013 1.013h-.583a1.013 1.013 0 0 1-1.009-1.014z" class="prefix__cls-3" data-name="Path 1149" transform="translate(-240.723 -120.936)"/>
            <path id="prefix__Path_1150" d="M117.537 159.525v-8.031a1.3 1.3 0 0 1 1.3-1.3 1.3 1.3 0 0 1 1.3 1.3v7.54a.1.1 0 0 1-.069.093c-.1.03-.314.091-.669.187a14.165 14.165 0 0 1-1.469.274 3.114 3.114 0 0 1-.311.025.087.087 0 0 1-.09-.087z" class="prefix__cls-4" data-name="Path 1150" transform="translate(-105.925 -123.275)"/>
            <path id="prefix__Path_1151" d="M225.037 163.427v-3.2a1.032 1.032 0 0 1 1.033-1.032h.544a1.032 1.032 0 0 1 1.032 1.032v5.5c0 .05-.049.069-.1.054-.114-.036-.221-.1-.649-.458-.323-.269-.653-.589-1.023-.927a10.292 10.292 0 0 1-.8-.861.176.176 0 0 1-.037-.108z" class="prefix__cls-4" data-name="Path 1151" transform="translate(-194.161 -130.67)"/>
            <path id="prefix__Path_1152" d="M387.529 148.15v-6.657a.069.069 0 0 1 .05-.066c.137-.039.547-.171 1.149-.321s1.161-.27 1.35-.3a.05.05 0 0 1 .059.049v7.3a1.269 1.269 0 0 1-1.269 1.269h-.07a1.269 1.269 0 0 1-1.269-1.27z" class="prefix__cls-3" data-name="Path 1152" transform="translate(-327.533 -115.568)"/>
            <path id="prefix__Path_1153" d="M102.008 108.786l-3.626-3.995a.634.634 0 0 0-.9-.043l-.027.025a.634.634 0 0 0-.043.9l.051.056c-.269.251-2.447 2.272-3.237 2.864a5.116 5.116 0 0 1-2.835 1.371v-9.977a1.3 1.3 0 1 0-2.608 0v9.893c-2.452-.567-4.569-2.733-7.036-5.553-2.246-2.567-6.42-7.66-10.34-9.557a23.57 23.57 0 0 0-3.931-1.515 30.054 30.054 0 0 0-4.153-.763v-.444L58.049 89l-5.277 3.047v6.093l5.277 3.047 5.277-3.047v-.24s1.029.122 2.116.376a17.046 17.046 0 0 1 2.038.647 14.3 14.3 0 0 1 1.525.672v5.352a1.3 1.3 0 0 0 1.3 1.3 1.3 1.3 0 0 0 1.3-1.3V101.4l.175.155a45.848 45.848 0 0 1 4.3 4.494c2.553 3.033 5.161 5.867 7.659 7.42a14.787 14.787 0 0 0 5.036 1.851v7.256l-3.936 2.273v6.093l5.277 3.047 5.277-3.047v-6.093l-4.01-2.315v-7.172a9.548 9.548 0 0 0 3.438-.8 16.728 16.728 0 0 0 3.064-2.034c1.533-1.233 2.991-2.65 3.174-2.828a.633.633 0 0 0 .867.018l.027-.025a.635.635 0 0 0 .055-.907z" class="prefix__cls-5" data-name="Path 1153" transform="translate(-52.767 -73.052)"/>
            <path id="prefix__Path_1154" d="M350.095 89l-5.277 3.047v.332a25.117 25.117 0 0 0-3.553.581 16.594 16.594 0 0 0-4.016 1.5 17.3 17.3 0 0 0-1.952 1.288c-1.477 1.147-3.022 2.552-3.281 2.79a.633.633 0 0 0-.81.034l-.027.025a.634.634 0 0 0-.043.9l3.626 3.995a.635.635 0 0 0 .9.043l.027-.025a.634.634 0 0 0 .044-.9l-.067-.074c.3-.272 2.542-2.311 3.53-2.975a9.329 9.329 0 0 1 3.591-1.411 13.952 13.952 0 0 1 2.037-.341v.331l5.277 3.047 5.277-3.047v-6.087z" class="prefix__cls-5" data-name="Path 1154" transform="translate(-281.11 -73.055)"/>
            <path id="prefix__Path_1155" d="M77.414 177.506l-3.626-3.995a.634.634 0 0 0-.9-.043l-.027.025a.634.634 0 0 0-.043.9l.069.076s-1.121 1.271-1.58 1.687a8.746 8.746 0 0 1-2.564 1.656 20.073 20.073 0 0 1-3.179.95 16.215 16.215 0 0 1-2.266.2v-.51L58.02 175.4l-5.277 3.047v6.093l5.277 3.047 5.277-3.047v-.177a25.748 25.748 0 0 0 2.827-.251 23.219 23.219 0 0 0 4.5-1.29 15.307 15.307 0 0 0 3.567-2.092c.7-.575 2.331-2.271 2.331-2.271l-.007-.007a.633.633 0 0 0 .822-.024l.027-.025a.635.635 0 0 0 .043-.9z" class="prefix__cls-6" data-name="Path 1155" transform="translate(-52.743 -142.246)"/>
            <path id="prefix__Path_1156" d="M235.363 33.153l-5.278 3.047v.487s-1.1-.17-2.265-.471a18.848 18.848 0 0 1-2.227-.747 11.605 11.605 0 0 1-1.108-.535v-5.443a1.3 1.3 0 1 0-2.608 0v3.615c-.218-.187-.432-.376-.639-.57-1.455-1.365-4.132-4.437-6.194-6.711-1.179-1.3-2.213-2.314-2.564-2.66a16.222 16.222 0 0 0-4.6-3.088 10.752 10.752 0 0 0-2.875-.832v-7.812l3.973-2.294V3.047L203.705 0l-5.277 3.047V9.14l3.973 2.294v7.721a15.351 15.351 0 0 0-2.68.43 15.383 15.383 0 0 0-4.055 2.15c-.938.68-3.342 3.135-3.342 3.135a.634.634 0 0 0-.9-.043l-.027.025a.634.634 0 0 0-.043.9l3.626 3.995a.635.635 0 0 0 .9.043l.027-.025a.634.634 0 0 0 .043-.9l-.03-.033c.143-.15 1.246-1.305 2.085-2.038a9.542 9.542 0 0 1 2.985-1.953 6.761 6.761 0 0 1 2.713-.327c2.031.123 4.128 1.541 5.64 3.064 2.084 2.1 5.472 6.165 7.409 8.11a21.454 21.454 0 0 0 6.427 4.594 22.964 22.964 0 0 0 6.9 1.8v.212l5.277 3.047 5.277-3.047V36.2z" class="prefix__cls-6" data-name="Path 1156" transform="translate(-166.382)"/>
        </g>
    </g>
</svg>
