<svg xmlns="http://www.w3.org/2000/svg" width="244" height="40" viewBox="0 0 244 40">
    <g fill="none" fill-rule="evenodd">
        <path d="M-11-11h265.729v61.699H-11z"/>
        <path fill="#231F20" fill-rule="nonzero" d="M14.557 5.261l4.766-4.74 4.765 4.74-4.765 4.74zM14.2 5.618l-4.767 4.74 9.636 9.586v-7.4a4.997 4.997 0 0 0-1.48-3.554L14.2 5.618zM17.586 19.18l-8.5-8.455-4.778 4.728L19.07 30.136v-7.4a4.997 4.997 0 0 0-1.483-3.556zM17.586 29.372L3.953 15.81 1.57 18.18a3.338 3.338 0 0 0 0 4.738l15.368 15.29c.57.568 1.327.913 2.131.971v-6.262a4.997 4.997 0 0 0-1.483-3.558v.013zM29.567 10.713l-8.499 8.454a4.997 4.997 0 0 0-1.483 3.557v7.4l14.745-14.67-4.763-4.741zM24.446 5.618l-3.39 3.37a4.997 4.997 0 0 0-1.483 3.556v7.4l9.635-9.585-4.762-4.741zM37.072 18.178l-2.383-2.368-13.634 13.562a4.997 4.997 0 0 0-1.482 3.557v6.263a3.367 3.367 0 0 0 2.13-.97L37.073 22.93a3.345 3.345 0 0 0 0-4.753zM81.256 8.101l-9.585 23.854h4.294l1.838-4.578h10.552l1.838 4.578h4.291L84.902 8.101h-3.646zm-1.888 15.406l3.72-9.26 3.721 9.26h-7.441zM236.405 18.121c-2.89-.892-5.351-1.221-5.351-3.757 0-2.017 1.52-2.725 3.777-2.725 1.961 0 4.706.314 7.099 1.86V9.47c-2.027-1.19-4.741-1.766-7.067-1.766-4.848 0-8.106 2.837-8.106 6.942 0 4.106 3.148 5.784 6.513 6.808 3.123.94 5.575 1.29 5.575 3.933 0 2.054-1.621 3.053-4.014 3.053-1.992 0-5.244-.542-7.671-2.26v4.414c2.203 1.19 5.313 1.766 7.671 1.766 4.983 0 8.308-3.103 8.308-7.202.012-4.246-3.18-5.952-6.734-7.036zM159.785 7.703c-7.052 0-12.394 5.355-12.394 12.328 0 6.974 5.352 12.328 12.394 12.328s12.39-5.351 12.39-12.328c0-6.976-5.342-12.328-12.39-12.328zm0 20.736c-4.477 0-8.103-3.758-8.103-8.408 0-4.65 3.626-8.407 8.103-8.407 4.476 0 8.1 3.757 8.1 8.407s-3.627 8.424-8.1 8.424v-.016zM216.624 23.11c0 3.334-2.57 5.323-5.726 5.323-3.158 0-5.727-1.995-5.727-5.324V8.101h-4.29v15.25c0 5.501 4.486 9.008 10.017 9.008 5.53 0 10.016-3.507 10.016-9.008V8.1h-4.29v15.008zM119.397 31.958V8.104h-4.291v16.922L102.691 8.104h-4.294v23.854h4.294V15.2l12.415 16.758zM63.096 31.958c3.903 0 6.812-3.13 6.812-7.03a7.072 7.072 0 0 0-2.748-5.689 6.866 6.866 0 0 0 1.483-4.302 6.698 6.698 0 0 0-1.957-4.85 6.77 6.77 0 0 0-4.859-1.986H49.642v23.854l13.454.003zm1.26-16.996a2.81 2.81 0 0 1-.811 2.092 2.84 2.84 0 0 1-2.09.842h-7.523v-5.871h7.518a2.84 2.84 0 0 1 2.09.842 2.81 2.81 0 0 1 .809 2.095h.006zm-1.632 13.076h-8.792v-6.263h8.786c1.741 0 2.9 1.403 2.9 3.132 0 1.728-1.159 3.131-2.9 3.131h.006zM195.123 15.137c0-3.883-2.924-7.033-6.83-7.033H177.79v23.854h4.294v-9.791h4.788l5.666 9.791h4.778l-6.072-10.461a6.975 6.975 0 0 0 3.878-6.36zm-7.205 3.16h-5.833v-6.263h5.833c1.74 0 2.911 1.406 2.911 3.131 0 1.726-1.17 3.132-2.911 3.132zM135.627 19.64l9.63-11.536h-5.254l-9.604 11.417V8.104h-4.291v23.854h4.29v-12.2l10.474 12.2h5.257z"/>
    </g>
</svg>
