<svg xmlns="http://www.w3.org/2000/svg" width="89" height="46" viewBox="0 0 89 46">
    <g fill="#0056C1" fill-rule="nonzero">
        <path d="M37 12h8v34h-8zM37 0h8v8h-8zM17 10.44a16.717 16.717 0 0 0-9.208 2.758V0H0v27.72C0 37.263 7.611 45 17 45s17-7.737 17-17.28c0-9.543-7.611-17.28-17-17.28zm0 26.64c-5.086 0-9.208-4.19-9.208-9.36 0-5.17 4.122-9.36 9.208-9.36s9.208 4.19 9.208 9.36c0 2.482-.97 4.863-2.697 6.619A9.133 9.133 0 0 1 17 37.08zM68 11.52h-7.078V0h-8.197v11.52H49v7.92h3.725V45h8.197V19.44H68zM89 11.52h-7.078V0h-8.197v11.52H70v7.92h3.725V45h8.197V19.44H89z"/>
    </g>
</svg>
