<svg xmlns="http://www.w3.org/2000/svg" xmlns:xlink="http://www.w3.org/1999/xlink" width="189" height="29" viewBox="0 0 189 29">
    <defs>
        <path id="a" d="M.308.339h19.59V21.62H.307z"/>
        <path id="c" d="M.167.313H18.75V16H.167z"/>
        <path id="e" d="M.37.365h12.499V17H.369z"/>
        <path id="g" d="M.11.365h14.8V17H.11z"/>
        <path id="i" d="M0 .135h16.783v28.497H0z"/>
    </defs>
    <g fill="none" fill-rule="evenodd">
        <path fill="#006BB1" d="M52.804 6H38.196a.202.202 0 0 0-.196.207v3.01c0 .114.088.207.196.207h2.253v15.183h-2.253a.202.202 0 0 0-.196.206v2.98c0 .114.088.207.196.207h8.931a.202.202 0 0 0 .197-.207v-2.98a.202.202 0 0 0-.197-.206h-2.512v-5.424h6.46a.202.202 0 0 0 .196-.207v-3.192a.202.202 0 0 0-.196-.207h-6.46V9.79h4.766V11.8c0 .114.087.207.196.207h3.227A.202.202 0 0 0 53 11.8V6.207A.202.202 0 0 0 52.804 6M62.814 24.889h-1.81V13.195a.19.19 0 0 0-.186-.195h-5.632a.19.19 0 0 0-.186.195v2.722a.19.19 0 0 0 .186.194h1.974v8.778h-1.837a.19.19 0 0 0-.186.195v2.721a.19.19 0 0 0 .186.195h7.49a.19.19 0 0 0 .187-.195v-2.72a.19.19 0 0 0-.186-.196M57.192 11h3.616c.106 0 .192-.096.192-.215v-3.57c0-.119-.086-.215-.192-.215h-3.616c-.106 0-.192.096-.192.215v3.57c0 .119.086.215.192.215M83.8 24.756h-1.974v-6.757c0-3.98-1.758-5.999-5.225-5.999-3.03 0-4.65 1.81-5.324 2.841v-.576c0-1.23-.76-1.906-2.14-1.906H65.2c-.11 0-.2.09-.2.203V15.4c0 .112.09.203.2.203h1.675c.3 0 .447.149.447.454v8.699h-1.975c-.11 0-.2.091-.2.203v2.838c0 .112.09.203.2.203h8.051c.11 0 .2-.09.2-.203v-2.838a.202.202 0 0 0-.2-.203h-1.945v-3.8c0-2.464 1.434-5.084 4.09-5.084 1.549 0 2.18.841 2.18 2.903v9.022c0 .112.09.203.2.203H83.8c.11 0 .2-.09.2-.203v-2.838a.202.202 0 0 0-.2-.203"/>
        <g transform="translate(84 7)">
            <mask id="b" fill="#fff">
                <use xlink:href="#a"/>
            </mask>
            <path fill="#006BB1" d="M19.697 14.486h-3.502c-.111 0-.2.087-.2.194v1.566c0 1.36-2.92 1.799-4.333 1.799-4.11 0-6.98-3.01-6.98-7.322 0-4.072 2.722-6.809 6.774-6.809 1.652 0 4.273.496 4.273 1.827v1.566c0 .107.09.194.2.194h3.503c.11 0 .2-.087.2-.194V4.574C19.632 1.1 13.602.34 11.28.34 5.024.339.308 4.877.308 10.894c0 6.115 4.78 10.727 11.119 10.727 3.275 0 8.47-1.135 8.47-4.18v-2.76a.197.197 0 0 0-.2-.195" mask="url(#b)"/>
        </g>
        <path fill="#006BB1" d="M113.797 24.415c-.003 0-.268.029-.634.029-.929 0-1.227-.465-1.227-1.91V6.205c0-.114-.083-.206-.185-.206h-5.566c-.103 0-.185.092-.185.206v2.872c0 .114.082.206.185.206h1.96v13.491c0 4.684 2.523 5.225 4.421 5.225.684 0 1.251-.089 1.275-.092.091-.015.159-.102.159-.204V24.62a.218.218 0 0 0-.06-.153.176.176 0 0 0-.143-.052"/>
        <g transform="translate(114 12)">
            <mask id="d" fill="#fff">
                <use xlink:href="#c"/>
            </mask>
            <path fill="#006BB1" d="M18.553 12.497h-1.426c-.298 0-.442-.146-.442-.445V.512c0-.11-.089-.199-.198-.199H10.52a.199.199 0 0 0-.198.2v2.782c0 .11.089.2.198.2h2.072V7.16c0 2.487-1.368 5.131-3.905 5.131-1.513 0-2.13-.816-2.13-2.818V.513c0-.11-.089-.2-.198-.2H.365a.199.199 0 0 0-.198.2v2.782c0 .11.089.2.198.2h2.101v6.624C2.466 14.022 4.168 16 7.524 16c3.046 0 4.608-1.765 5.244-2.757v.537c0 1.205.753 1.868 2.118 1.868h3.667c.11 0 .198-.089.198-.199v-2.753c0-.11-.088-.2-.198-.2" mask="url(#d)"/>
        </g>
        <g transform="translate(134 12)">
            <mask id="f" fill="#fff">
                <use xlink:href="#e"/>
            </mask>
            <path fill="#006BB1" d="M7.851 7.118C6.191 6.593 4.92 6.105 4.92 5.007c0-1.105 1.476-1.19 1.929-1.19 1.188 0 1.957.42 1.957 1.069v.88c0 .115.087.207.195.207h3.127c.108 0 .195-.092.195-.207V3.792C12.323 1.278 9.05.365 6.85.365 4.098.365.885 1.58.885 5.007.885 8.259 3.86 9.35 5.633 10c.241.093.473.18.696.264 1.692.636 2.505.984 2.505 1.941 0 1.013-1.189 1.373-2.302 1.373-1.287 0-2.673-.439-2.673-1.403v-.912a.201.201 0 0 0-.196-.206h-3.1c-.107 0-.194.092-.194.206v1.793C.37 15.618 3.53 17 6.504 17c3.866 0 6.365-1.93 6.365-4.916 0-3.264-2.898-4.247-5.018-4.966" mask="url(#f)"/>
        </g>
        <path fill="#FF861D" d="M150.192 11h3.616c.106 0 .192-.096.192-.215v-3.57c0-.119-.086-.215-.192-.215h-3.616c-.106 0-.192.096-.192.215v3.57c0 .119.086.215.192.215"/>
        <path fill="#006BB1" d="M156.814 24.889h-1.81V13.195a.19.19 0 0 0-.186-.195h-5.632a.19.19 0 0 0-.186.195v2.722a.19.19 0 0 0 .186.194h1.974v8.778h-1.837a.19.19 0 0 0-.186.195v2.721a.19.19 0 0 0 .186.195h7.49a.19.19 0 0 0 .187-.195v-2.72a.19.19 0 0 0-.186-.196M173.805 13h-7.017a.195.195 0 0 0-.195.195v2.722c0 .107.087.194.195.194h1.386l-2.457 6.961a6.644 6.644 0 0 0-.207.753 5.851 5.851 0 0 0-.227-.754l-2.43-6.96h1.358a.195.195 0 0 0 .195-.194v-2.722a.195.195 0 0 0-.195-.195h-7.016a.195.195 0 0 0-.195.195v2.722c0 .107.087.194.195.194h1.64l4.392 11.762a.195.195 0 0 0 .182.127h4.182c.08 0 .153-.05.182-.126l4.42-11.763h1.612a.195.195 0 0 0 .195-.194v-2.722a.195.195 0 0 0-.195-.195"/>
        <g transform="translate(174 12)">
            <mask id="h" fill="#fff">
                <use xlink:href="#g"/>
            </mask>
            <path fill="#006BB1" d="M4.498 6.744c.41-1.85 1.694-2.989 3.397-2.989 1.522 0 2.596 1.192 2.722 2.99H4.498zM7.984.365C3.348.365.11 3.785.11 8.683.11 13.503 3.61 17 8.43 17c3.826 0 6.142-2.12 6.238-2.211a.21.21 0 0 0 .041-.252l-1.451-2.733a.2.2 0 0 0-.139-.104.193.193 0 0 0-.167.043c-.019.016-1.902 1.594-4.255 1.594-2.35 0-4.021-1.524-4.31-3.901h10.235c.102 0 .189-.08.2-.185.003-.035.09-.867.09-1.328 0-4.52-2.783-7.558-6.927-7.558z" mask="url(#h)"/>
        </g>
        <g>
            <mask id="j" fill="#fff">
                <use xlink:href="#i"/>
            </mask>
            <path fill="#FFC000" d="M0 10.998l.002 17.634L16.783.135z" mask="url(#j)"/>
        </g>
        <path fill="#FF861D" d="M16.5 0L0 28l33-17.324z"/>
        <path fill="#00ACE6" d="M17 19.604L33 28V11z"/>
        <path fill="#006BB1" d="M17 20.263L24.436 24 33 12z"/>
    </g>
</svg>
