<svg xmlns="http://www.w3.org/2000/svg" width="141" height="53" viewBox="0 0 141 53">
    <g fill="none" fill-rule="evenodd">
        <path fill="#555" fill-rule="nonzero" d="M5.135 21a433.137 433.137 0 0 0 6.285 12.387 901.936 901.936 0 0 0 6.644 12.342 656.738 656.738 0 0 1 3.288-6.104c.752-1.376 1.555-2.864 2.41-4.465.857-1.6 1.728-3.224 2.614-4.87a659.202 659.202 0 0 1 2.635-4.847c.87-1.586 1.682-3.067 2.432-4.443h.586c.33 2.872.638 5.647.924 8.325.285 2.678.578 5.311.878 7.9.3 2.588.6 5.146.9 7.674.301 2.528.632 5.034.992 7.518-.36-.06-.713-.09-1.059-.09h-2.117c-.345 0-.698.03-1.059.09-.33-3.98-.66-7.84-.99-11.58-.33-3.74-.736-7.555-1.217-11.444h-.09c-2.072 3.77-4.107 7.517-6.104 11.242a172.878 172.878 0 0 0-5.699 11.692h-.405a378.84 378.84 0 0 0-5.653-11.333 920.247 920.247 0 0 1-5.924-11.601h-.09c-.21 1.855-.443 3.867-.699 6.036-.255 2.17-.488 4.309-.698 6.418-.21 2.11-.39 4.1-.54 5.97-.15 1.87-.226 3.403-.226 4.6-.48-.06-1.006-.09-1.576-.09-.57 0-1.096.03-1.577.09.39-2.424.796-4.982 1.216-7.675.42-2.693.826-5.4 1.217-8.123.39-2.723.75-5.409 1.08-8.057.331-2.648.616-5.168.857-7.562h.765zM42.3 33.208c0-1.975-.038-3.913-.113-5.812-.075-1.9-.157-3.838-.247-5.813.39.06.765.113 1.126.158a8.74 8.74 0 0 0 2.162 0c.36-.045.736-.098 1.126-.158-.09 1.975-.172 3.913-.247 5.813-.076 1.9-.113 3.837-.113 5.812v7.72c0 1.974.037 3.919.113 5.834.075 1.914.157 3.8.247 5.655-.69-.06-1.426-.09-2.207-.09-.78 0-1.517.03-2.207.09.09-1.856.172-3.74.247-5.655.075-1.915.113-3.86.113-5.835v-7.72zM80.185 53A442.99 442.99 0 0 0 69.15 40.77a3168.826 3168.826 0 0 0-11.713-12.454c-.03.837-.06 1.96-.09 3.366-.03 1.406-.045 3.32-.045 5.744 0 .629.007 1.407.022 2.334l.046 2.917c.015 1.018.037 2.05.067 3.097.03 1.047.06 2.02.09 2.917.03.898.06 1.683.09 2.357.03.673.06 1.13.09 1.369-.48-.06-1.006-.09-1.576-.09-.6 0-1.157.03-1.667.09.06-.3.128-.853.203-1.661a75.53 75.53 0 0 0 .202-2.895c.06-1.122.128-2.341.203-3.658.075-1.316.135-2.633.18-3.95.045-1.316.083-2.602.113-3.859.03-1.257.045-2.379.045-3.366 0-2.872-.008-5.34-.023-7.405-.015-2.065-.052-3.606-.112-4.623h.72c1.833 1.975 3.792 4.092 5.88 6.35 2.087 2.26 4.159 4.489 6.216 6.688 2.057 2.199 4.01 4.278 5.856 6.238a225.499 225.499 0 0 0 4.843 5.005v-6.104c0-3.142-.023-6.201-.068-9.178a201.807 201.807 0 0 0-.293-8.416c.601.15 1.112.225 1.532.225.36 0 .841-.075 1.442-.225-.06.659-.128 1.646-.203 2.963a621 621 0 0 0-.428 8.617 86.742 86.742 0 0 0-.09 3.456v2.692c0 1.018.007 2.08.022 3.187l.045 3.344c.015 1.122.03 2.169.045 3.141.015.973.023 1.818.023 2.536V53h-.63zm9.686-19.792c0-1.975-.038-3.913-.113-5.812-.075-1.9-.158-3.838-.248-5.813 1.141.06 2.275.113 3.401.158 1.127.044 2.26.067 3.401.067 1.142 0 2.275-.038 3.402-.112a51.306 51.306 0 0 1 3.4-.113c2.644 0 4.903.345 6.78 1.033 1.877.688 3.417 1.668 4.618 2.94 1.201 1.271 2.08 2.827 2.635 4.667.556 1.84.834 3.912.834 6.216 0 2.992-.519 5.513-1.555 7.562-1.036 2.05-2.357 3.703-3.964 4.96a14.834 14.834 0 0 1-5.316 2.67c-1.937.524-3.791.786-5.563.786-1.021 0-2.027-.015-3.018-.045-.991-.03-1.997-.045-3.018-.045h-3.019c-.99 0-1.997.03-3.018.09.09-1.856.173-3.74.248-5.655.075-1.915.113-3.86.113-5.835v-7.72zm3.694 7.72c0 3.23.09 6.402.27 9.514.63.15 1.486.262 2.568.336 1.08.075 2.192.113 3.333.113 1.652 0 3.304-.195 4.955-.584a10.762 10.762 0 0 0 4.438-2.199c1.306-1.077 2.372-2.55 3.198-4.42.826-1.87 1.239-4.287 1.239-7.249 0-2.603-.323-4.742-.969-6.418-.645-1.676-1.531-3-2.658-3.972-1.126-.972-2.47-1.646-4.031-2.02-1.562-.374-3.274-.56-5.136-.56a49.68 49.68 0 0 0-3.784.134c-1.171.09-2.222.195-3.153.314a133.06 133.06 0 0 0-.203 4.51c-.045 1.572-.067 3.165-.067 4.78v7.72zm30.362 5.654c.24.539.563 1.085.968 1.638a7.421 7.421 0 0 0 1.487 1.504 7.637 7.637 0 0 0 2.05 1.1c.78.284 1.651.426 2.612.426.991 0 1.885-.172 2.68-.516a6.106 6.106 0 0 0 2.028-1.392 6.078 6.078 0 0 0 1.284-2.064c.3-.793.45-1.638.45-2.536 0-1.376-.353-2.469-1.058-3.276-.706-.808-1.585-1.481-2.636-2.02a30.953 30.953 0 0 0-3.4-1.481 17.544 17.544 0 0 1-3.402-1.683 9.007 9.007 0 0 1-2.635-2.58c-.706-1.048-1.059-2.454-1.059-4.22 0-1.256.225-2.4.676-3.433a7.48 7.48 0 0 1 1.96-2.67c.855-.748 1.884-1.332 3.085-1.75 1.202-.42 2.553-.629 4.055-.629 1.441 0 2.687.172 3.739.516a9.328 9.328 0 0 1 2.928 1.593 9.645 9.645 0 0 0-.676 1.616c-.18.569-.36 1.287-.54 2.154h-.541c-.15-.419-.353-.875-.608-1.368-.256-.494-.601-.95-1.036-1.37a5.795 5.795 0 0 0-1.555-1.054c-.6-.284-1.321-.426-2.162-.426-.84 0-1.614.134-2.32.404-.706.269-1.321.65-1.847 1.144a5.058 5.058 0 0 0-1.216 1.773 5.802 5.802 0 0 0-.428 2.244c0 1.406.353 2.513 1.059 3.321.705.808 1.584 1.489 2.635 2.042a26.132 26.132 0 0 0 3.401 1.481c1.216.434 2.35.965 3.401 1.593a8.672 8.672 0 0 1 2.635 2.424c.706.987 1.059 2.304 1.059 3.95 0 1.376-.248 2.677-.743 3.904a9.192 9.192 0 0 1-2.163 3.21c-.946.912-2.102 1.615-3.468 2.108-1.367.494-2.92.741-4.663.741-1.862 0-3.37-.247-4.527-.74-1.156-.494-2.125-1.055-2.906-1.684.27-.688.458-1.309.563-1.862.106-.554.203-1.264.293-2.132h.54z"/>
        <path fill="#656565" d="M42.178 24.14l-.144 2.197.144-2.197zM40.372 25.58l1.824-1.59 1.825 3.104z"/>
        <path fill="#787778" d="M40.372 20.884v4.695l1.824-1.59z"/>
        <path fill="#5C5C5C" d="M45.846 23.99l-1.825 3.104 3.65-1.515z"/>
        <path fill="#787778" d="M47.67 25.58l-1.824-1.59 1.825-3.106z"/>
        <path fill="#4A4A4A" d="M40.372 20.884h7.299l-3.65 6.21z"/>
        <g>
            <path fill="#FED12F" d="M41.102 6.572l7.736 3.332-5.547 4.62zM46.94.969l4.38 4.695-2.482 4.24zM40.372 20.884l8.028-2.423-.73 2.423zM39.642 18.461l3.65-3.937-2.92 6.36zM36.722 5.664l4.38-4.695v5.603z"/>
            <path fill="#FFF3CB" d="M43.291 14.524l5.11 3.937.437-8.557zM43.291 14.524l-7.007-1.288 3.358 5.225z"/>
            <path fill="#FFDD63" d="M41.102 6.572L46.94.97l1.897 8.935z"/>
            <path fill="#FFEDAC" d="M36.284 13.236l4.818-6.664 2.19 7.952z"/>
            <path fill="#FFDD63" d="M40.372 20.884l2.92-6.36L48.4 18.46zM48.4 18.461l.438-8.557 2.92 3.332zM36.284 13.236l.438-7.572 4.38.908z"/>
            <path fill="#FEE382" d="M48.838 9.904l2.482-4.24.438 7.572z"/>
            <path fill="#FEF1C0" d="M46.94.969l-5.838 5.603V.97z"/>
        </g>
    </g>
</svg>
