<svg xmlns="http://www.w3.org/2000/svg" width="175" height="47" viewBox="0 0 175 47">
    <defs>
        <linearGradient id="a" x1="0%" y1="49.984%" y2="49.984%">
            <stop offset="0%" stop-color="#2E3192"/>
            <stop offset="7%" stop-color="#2155AD"/>
            <stop offset="16%" stop-color="#137BC9"/>
            <stop offset="25%" stop-color="#0897DE"/>
            <stop offset="32%" stop-color="#02A8EB"/>
            <stop offset="38%" stop-color="#00AEEF"/>
            <stop offset="45%" stop-color="#1CB4D8"/>
            <stop offset="64%" stop-color="#5FC3A2"/>
            <stop offset="81%" stop-color="#8FCD7A"/>
            <stop offset="93%" stop-color="#ADD462"/>
            <stop offset="100%" stop-color="#B8D659"/>
        </linearGradient>
    </defs>
    <path fill="url(#a)" fill-rule="nonzero" d="M39.937 10.696L22.84.466a3.816 3.816 0 0 0-3.657 0L1.81 10.697A3.965 3.965 0 0 0 0 13.866v19.76c.047 1.3.74 2.49 1.847 3.171l17.343 9.765a4.005 4.005 0 0 0 3.641 0l16.806-9.488a3.933 3.933 0 0 0 1.858-3.146l.237-20.014a3.965 3.965 0 0 0-1.795-3.218zM29.755 28.669L22.2 33.123v-8.826l.62-.368v.023l6.837-3.883.1 8.6zM2.373 14.187l17.453 10.118v8.901L2.373 23.291v-9.104zm18.549-.792l7.615 4.359-7.532 4.486-7.695-4.458 7.612-4.387zm10.21 3.095l-7.802-4.45 7.256-4.17 7.667 4.59-7.122 4.03zM20.387 2.504a1.507 1.507 0 0 1 1.237 0l6.624 3.963-17.316 9.936-7.11-4.122 16.565-9.777zM3.009 34.712a1.55 1.55 0 0 1-.636-1.086v-7.6l16.777 9.51c.215.116.442.208.676.274v8.35L3.01 34.712zm19.19 9.464V35.79a3.16 3.16 0 0 0 .6-.265l6.984-4.114.083 8.438-7.667 4.327zM38.47 34.99l-6.247 3.527-.194-19.788 7.323-4.161-.23 19.316a1.586 1.586 0 0 1-.652 1.106zm108.625-17.038a2.486 2.486 0 0 1-2.49 2.477 2.486 2.486 0 0 1-2.476-2.493 2.48 2.48 0 1 1 4.243-1.752c.466.47.727 1.106.723 1.768zM119.191 28.99c-.024-5.271-2.096-7.927-6.16-7.927-4.517 0-6.573 3.63-6.573 7.007 0 2.156.732 4.035 2.056 5.299a6.536 6.536 0 0 0 4.63 1.724h.46c1.423-.075 2.83-.218 4.404-1.165l.226-.135-1.42-2.885-.23.067c-1.854.543-3.558.396-4.673-.42a2.247 2.247 0 0 1-.913-1.288h8.193v-.277zm-8.087-2.775c.277-1.212.843-1.716 1.898-1.716 1.056 0 2.223.456 2.55 1.716h-4.448zm-15.56 4.851l1.768 3.012-.288.135c-1.127.5-2.35.744-3.583.713-2.63 0-5.287-1.47-5.287-4.755v-5.153h-5.563v4.4c0 1.3.51 1.807 1.83 1.807.306-.001.61-.041.906-.12l.21-.055 1.763 3.012-.284.135c-1.127.5-2.35.744-3.583.714-2.633 0-5.29-1.47-5.29-4.756v-5.152h-2.254v-3.571h2.253v-3.389h4.449v3.389h5.563v-3.389H92.6v3.389h3.883v3.682l-3.88-.076v4.395c0 1.3.515 1.808 1.836 1.808.305-.001.61-.041.905-.12l.202-.055zM175 34.078l-.265.123c-1.127.5-2.35.744-3.582.713-2.63 0-5.287-1.47-5.287-4.755v-5.152h-2.254v-3.575h2.254v-3.389h4.444v3.389h2.306l2.024 3.602h-4.35v4.4c0 1.3.515 1.807 1.835 1.807.339-.031.673-.099.997-.202l.395-.1L175 34.08zm-70.167-3.032l1.855 3.056-.285.135c-.937.49-1.98.736-3.037.717-2.831 0-4.658-1.906-4.658-4.859V15.59h4.449v14.09c0 .919.494 1.366 1.514 1.366h.162zm31.305-15.456h4.16v19.087h-4.527v-11.87l-5.133 6.12-5.14-6.136v11.89h-4.5V15.59h4.16l5.5 6.737 5.48-6.738zm6.26 5.842h4.448v13.245h-4.448V21.432zm20.119 5.631v7.614h-4.437V27.67c0-1.728-.79-2.719-2.163-2.719a3.42 3.42 0 0 0-2.297.9v8.826h-4.449V21.432h4.251v.9a5.998 5.998 0 0 1 3.757-1.285c2.467 0 5.338 1.574 5.338 6.016zM75.264 28.99c-.024-5.271-2.096-7.927-6.16-7.927-4.516 0-6.577 3.63-6.577 7.007 0 2.156.732 4.035 2.06 5.299a6.52 6.52 0 0 0 4.611 1.708h.459c1.427-.075 2.835-.218 4.405-1.165l.225-.135-1.404-2.87-.225.068c-1.858.543-3.559.396-4.674-.42a2.255 2.255 0 0 1-.917-1.288h8.197v-.277zm-8.09-2.775c.276-1.212.842-1.716 1.902-1.716s2.218.456 2.546 1.716h-4.448zm-5.675 2.117a7.143 7.143 0 0 1-1.842 4.732c-.945 1.046-2.717 2.203-5.485 2.203-2.997-.024-6.184-1.815-7.252-3.84l-.193-.333 3.618-2.188c.577 1.062 2.42 1.982 3.93 1.938a2.134 2.134 0 0 0 2.108-2.049c0-1.32-1.487-2.033-3.211-2.857-2.373-1.145-5.326-2.56-5.326-6.258 0-3.388 3.34-6.226 6.516-6.08 2.463.116 4.065.857 5.975 3.104l-2.84 2.774s-.331-.313-.83-.694a3.782 3.782 0 0 0-2.265-.685c-.965 0-1.582.495-1.582 1.292 0 .868 1.277 1.438 2.768 2.096 2.499 1.098 5.911 2.62 5.911 6.845z"/>
</svg>
