<svg xmlns="http://www.w3.org/2000/svg" width="133" height="34" viewBox="0 0 133 34">
    <g fill="none" fill-rule="nonzero">
        <path fill="#000" d="M44.954.472l-14.327 26.69h14.327v6.366H19L33.87 6.735H19.834V.472h25.121zm10.658 26.72h13.72v6.328H48.844V.464h20.069v6.328H55.612v6.99H65.67v6.232H55.612v7.178zm43.033 6.336H91.46l-6.906-11.003h-4.681v11.003h-6.767V.472h11.356c7.277 0 12.004 4.486 12.004 11.24 0 4.485-2.132 7.838-5.747 9.538l7.925 12.278zM79.874 6.8v9.775h4.171c3.337 0 5.655-1.322 5.655-4.864 0-3.494-2.318-4.911-5.655-4.911h-4.171zM116.176 0C125.214 0 133 6.847 133 17c0 10.153-7.786 17-16.824 17-9.038 0-16.824-6.847-16.824-17 0-10.153 7.786-17 16.824-17zm0 27.53c5.469 0 9.78-4.297 9.78-10.53s-4.311-10.53-9.78-10.53c-5.469 0-9.78 4.297-9.78 10.53s4.311 10.53 9.78 10.53z"/>
        <path fill="#00CE7D" d="M14.661 34C7.334 34 3.876 28.959 3.876 23.4v-6.938H0V10.21h3.876V3.944L10.582 1v9.21h5.205v6.252h-5.205v5.525c0 1.178.384 5.956 7.418 6.002L14.661 34z"/>
    </g>
</svg>
