<svg xmlns="http://www.w3.org/2000/svg" width="143" height="54" viewBox="0 0 143 54">
    <defs>
        <linearGradient id="a" x1="100%" x2="0%" y1=".365%" y2="99.635%">
            <stop offset="0%" stop-color="#E73448"/>
            <stop offset="100%" stop-color="#E56F70"/>
        </linearGradient>
    </defs>
    <path fill="url(#a)" fill-rule="nonzero" d="M61.487 32.94c-.082-1.091.19-2.224.767-3.384.63-1.27 1.589-2.515 2.824-3.794 1.839-1.965 6.963-6.729 7.708-7.192l.025-.015.027-.012c1-.482 2.557-.622 3.687-.162.98.424 1.499 1.364 1.483 2.387-.016 1-.55 1.871-1.403 1.871-.619 0-1.131.277-2.714 1.668-.245.216-3.05 2.522-4.02 3.376-1.045.924-1.913 1.77-2.616 2.566-.913 1.031-1.51 1.943-1.752 2.706-.204.659-.125.989.197 1.242.322.254.767.411 1.967.733l.268.076c2.591.737 3.691 1.175 4.706 2.091.39.355.713.76.956 1.191.46-2.26 2.688-6.901 5.69-9.758 2.848-2.698 5.191-3.092 6.365-2.924 1.564.168 3.74 2.756 4.02 5.063.167 2.305-3.238 4.16-5.471 5.23-2.178 1.011-4.077 2.42-5.529.056-.446.619-1.395 2.531 1.509 2.363 2.845-.17 9.434-2.418 13.343-4.725.76-.443 1.307-.67 1.678-.741.157-.387.323-.811.501-1.284 1.62-4.161 3.127-8.269 3.461-9.056.392-.844 1.899-1.348 3.852-.28.84.45 1.452 1.575 1.063 2.192-.337.451-2.456 2.983-5.137 10.8 4.523-3.318 10.553-10.686 12.898-10.517 2.4.168 3.405 1.854 2.12 4.725-1.34 2.98-1.953 8.042-.501 7.593 1.452-.451 5.36-2.756 7.09-3.938.414-.243.688-.272.821-.138.728-1.71 1.488-3.488 2.252-5.262-1.173.17-2.067.282-2.68.282-1.898.169-2.68-4.219-1.229-4.781 1.397-.62 1.174-.281 3.071-.45.447 0 1.62-.056 3.126-.111 1.564-3.377 3.128-6.356 4.411-8.551 4.692-7.705 7.035-10.967 8.377-10.742 1.396.336 4.131 2.137 4.299 2.811.056.676-.614.62-1.006 1.238-1.34 1.913-4.69 5.682-9.771 14.85 1.62-.17 3.072-.227 4.131-.395 3.63-.451 4.3-.225 4.133.225-.112.394-2.01 3.205-5.807 3.824-1.285.225-3.07.451-4.913.844-.67 1.293-1.397 2.532-2.123 4.05-7.76 15.468-8.32 19.29-8.932 21.148-.615 1.856-2.012 2.868-3.183 1.293-1.172-1.63-.726-4.893 1.006-8.717a815.1 815.1 0 0 1 3.669-8.792 15.19 15.19 0 0 1-1.773 1.873c-3.126 2.87-5.359 5.063-8.152 4.613-2.792-.45-2.96-8.774-1.173-11.756-.78-.45-5.471 5.738-8.766 9.393-3.406 3.6-4.634 3.994-6.14 3.825-1.397-.168-2.627-4.33-1.732-5.737.428-.728.807-1.198 1.267-1.98-2.386 1.411-11.256 6.023-14.948 6.873-2.47.553-4.033-.423-4.769-1.78-.344 1.502-1.601 3.378-3.273 4.929-1.854 1.724-3.954 2.824-5.836 2.9-3.787.151-5.075-2.595-3.78-5.906.858-2.205 1.874-3.471 2.826-3.899.36-.161.743-.136.988.202.173.24.19.528.124.89-.102.543-.43 1.347-.97 2.367-.52.982-.796 1.91-.758 2.546.033.554.273.792.89.792 1.976 0 4.558-2.123 5.918-5.403l.013-.028c.194-.402.303-.765.319-1.04.012-.2-.02-.304-.048-.327-.45-.363-1.288-.732-2.132-.98a69.86 69.86 0 0 0-.532-.134c-.262-.066-.49-.127-.722-.192a17.454 17.454 0 0 1-1.752-.575c-1.815-.712-3.062-1.634-3.511-2.894-.45.884-1.354 2.083-2.71 3.301-3.128 2.87-5.361 5.063-8.151 4.613-2.793-.45-2.96-8.774-1.173-11.756-.782-.45-5.473 5.738-8.766 9.393-3.406 3.6-4.635 3.994-6.142 3.825-1.395-.168-2.625-4.33-1.73-5.737.469-.798.876-1.286 1.402-2.216-3.728 2.865-9.71 7.183-11.287 7.558-2.123.62-4.3-1.348-4.02-4.555.28-3.037 2.792-8.999 4.3-10.798 1.506-1.858 1.898-1.858 2.344-1.858 1.06 0 3.239 2.42 3.071 3.32-.056.9-.446.956-1.508 1.574-.949.732-4.634 7.819-3.015 7.37 1.51-.422 9.185-4.704 11.754-6.239.063-.163.13-.335.196-.512 1.62-4.161 3.128-8.269 3.462-9.056.392-.844 1.899-1.348 3.853-.28.836.45 1.451 1.575 1.06 2.192-.335.451-2.457 2.983-5.137 10.8 4.523-3.318 10.555-10.686 12.898-10.517 2.4.168 3.406 1.854 2.123 4.725-1.342 2.98-1.955 8.042-.504 7.593 1.452-.451 5.361-2.756 7.092-3.938.108-.063.206-.113.296-.147M34.183 1.583c.057.84-.506 1.904-.73 2.294-2.749 4.698-18.509 30.937-20.922 35.132-2.356 4.252-1.627 6.097-5.328 6.265-1.123.057-2.637-.783-3.31-4.196-.45-2.237-1.122-10.236-1.74-17.566L1.145 9.416c-2.188-.897-.785-6.098.449-6.994 1.12-.95 1.907-.558 3.196.056 4.152 1.959 3.702 3.75 3.423 5.538-.17.895.168 7.89.448 14.602.168 3.972.392 8.392.674 13.258 5.552-6.209 18.958-30.489 21.65-34.293.504-.727.674-1.286.953-1.455 1.065-.447 2.076.336 2.245 1.455m-3.926 20.674c-.882.723-3.365 1.666-3.971.334-.717-1.277-1.267-3.554-.441-3.832.938-.332 2.978-.887 3.254-.887.938-.166 1.655 1.664 2.372 2.497.659.835-.332 1.167-1.214 1.888m56.043 6.82c-.53 2.597-4.764 4.465-6.67 4.985 2.117-2.492 3.388-3.738 6.67-4.985"/>
</svg>
